<svg xmlns="http://www.w3.org/2000/svg" width="155.73" height="149.182" viewBox="0 0 155.73 149.182">
  <g id="back_end_" data-name="back end " transform="translate(0 0)">
    <path id="Path_223" data-name="Path 223" d="M328.719,92.472c-8.105-31.872-36.112-54.879-68.985-55.8-17.379-.488-35.667,5.276-48.981,25.446-23.8,36.056,1.463,60.972,19.076,72.811a110.212,110.212,0,0,1,22.78,20.475c11.9,14.118,34.785,31.662,62.044,4.174C334.409,139.653,334.117,113.7,328.719,92.472Z" transform="translate(-195.169 -36.643)" fill="#f2f2f2"/>
    <path id="Path_224" data-name="Path 224" d="M324.05,711.425c0,7.823-34.14,22.376-77.143,22.376S168.5,720.151,168.5,712.328s35.4-6.857,78.406-6.857S324.05,703.6,324.05,711.425Z" transform="translate(-168.5 -584.619)" fill="#3f3d56"/>
    <path id="Path_225" data-name="Path 225" d="M324.05,711.425c0,7.823-34.14,22.376-77.143,22.376S168.5,720.151,168.5,712.328s35.4-6.857,78.406-6.857S324.05,703.6,324.05,711.425Z" transform="translate(-168.5 -584.619)" opacity="0.1"/>
    <ellipse id="Ellipse_82" data-name="Ellipse 82" cx="77.865" cy="14.165" rx="77.865" ry="14.165" transform="translate(0 113.453)" fill="#3f3d56"/>
    <path id="Path_226" data-name="Path 226" d="M594.859,440.238v37.885L601.2,488.45l.482.785h25l.505-49Z" transform="translate(-487.515 -360.796)" fill="#2f2e41"/>
    <path id="Path_227" data-name="Path 227" d="M594.859,440.238v37.885L601.2,488.45l.389-48.212Z" transform="translate(-487.515 -360.796)" opacity="0.1"/>
    <path id="Path_228" data-name="Path 228" d="M113.524,434.639v37.885l-6.337,10.327-.482.786h-25l-.505-49Z" transform="translate(-66.543 -356.207)" fill="#2f2e41"/>
    <path id="Path_229" data-name="Path 229" d="M229.8,434.639v37.885l-6.337,10.327-.389-48.212Z" transform="translate(-182.821 -356.207)" opacity="0.1"/>
    <path id="Path_230" data-name="Path 230" d="M198.88,396.029V398.3H63v-3.283l12.628-6.567H187.768Z" transform="translate(-51.632 -318.355)" fill="#2f2e41"/>
    <path id="Path_231" data-name="Path 231" d="M198.88,425.852v2.273H63v-3.283Z" transform="translate(-51.632 -348.178)" opacity="0.1"/>
    <path id="Path_232" data-name="Path 232" d="M131.771,485.394H125.71l-2.526-1.768h11.365Z" transform="translate(-100.955 -396.355)" opacity="0.1"/>
    <path id="Path_233" data-name="Path 233" d="M131.771,525.983H125.71l-2.526-1.768h11.365Z" transform="translate(-100.955 -429.619)" opacity="0.1"/>
    <path id="Path_234" data-name="Path 234" d="M131.771,583.368H125.71l-2.526-1.768h11.365Z" transform="translate(-100.955 -476.649)" opacity="0.1"/>
    <path id="Path_235" data-name="Path 235" d="M131.771,640.753H125.71l-2.526-1.768h11.365Z" transform="translate(-100.955 -523.679)" opacity="0.1"/>
    <path id="Path_236" data-name="Path 236" d="M671.817,490.993h6.062l2.526-1.768H669.039Z" transform="translate(-548.309 -400.943)" opacity="0.1"/>
    <path id="Path_237" data-name="Path 237" d="M671.817,531.582h6.062l2.526-1.768H669.039Z" transform="translate(-548.309 -434.208)" opacity="0.1"/>
    <path id="Path_238" data-name="Path 238" d="M671.817,588.967h6.062L680.4,587.2H669.039Z" transform="translate(-548.309 -481.238)" opacity="0.1"/>
    <path id="Path_239" data-name="Path 239" d="M671.817,646.351h6.062l2.526-1.768H669.039Z" transform="translate(-548.309 -528.267)" opacity="0.1"/>
    <path id="Path_240" data-name="Path 240" d="M686.878,388.6l-.843,5.379s-4.148,2.2-1.231,2.268,16.655,0,16.655,0,2.657,0-1.555-2.333l-.842-5.638Z" transform="translate(-590.784 -324.821)" fill="#3f3d56"/>
    <path id="Path_241" data-name="Path 241" d="M684.222,396.187a11.469,11.469,0,0,1,1.818-1.2l.842-5.379,12.183.011.842,5.3a11.063,11.063,0,0,1,1.947,1.281c.541-.123,1.132-.582-1.947-2.287l-.842-5.638-12.183.324-.843,5.379S682.555,395.829,684.222,396.187Z" transform="translate(-590.789 -324.821)" opacity="0.1"/>
    <rect id="Rectangle_94" data-name="Rectangle 94" width="54.89" height="38.235" rx="10.695" transform="translate(74.675 26.287)" fill="#3f3d56"/>
    <rect id="Rectangle_95" data-name="Rectangle 95" width="51.196" height="28.644" transform="translate(76.522 28.328)" fill="#f2f2f2"/>
    <circle id="Ellipse_83" data-name="Ellipse 83" cx="0.324" cy="0.324" r="0.324" transform="translate(101.796 27.097)" fill="#f2f2f2"/>
    <path id="Path_242" data-name="Path 242" d="M637.214,364.931v3.352a1.93,1.93,0,0,1-1.93,1.93h-51.03a1.93,1.93,0,0,1-1.93-1.93v-3.351Z" transform="translate(-507.649 -305.691)" fill="#3f3d56"/>
    <circle id="Ellipse_84" data-name="Ellipse 84" cx="1.231" cy="1.231" r="1.231" transform="translate(100.889 60.666)" fill="#f2f2f2"/>
    <path id="Path_243" data-name="Path 243" d="M396.936,404.6v.648H362.071v-.518l.048-.13.859-2.333h33.245Z" transform="translate(-296.734 -329.678)" fill="#3f3d56"/>
    <path id="Path_244" data-name="Path 244" d="M753.681,438.189c-.064.272-.3.558-.845.829-1.944.972-5.9-.259-5.9-.259s-3.046-.518-3.046-1.879a2.43,2.43,0,0,1,.267-.159c.817-.432,3.528-1.5,8.333.045a2,2,0,0,1,.913.6.956.956,0,0,1,.275.825Z" transform="translate(-640.062 -363.9)" fill="#3f3d56"/>
    <path id="Path_245" data-name="Path 245" d="M754.893,438.189c-2.38.912-4.5.98-6.677-.532a4.781,4.781,0,0,0-2.844-.936c.817-.432,3.528-1.5,8.333.045a2,2,0,0,1,.913.6A.956.956,0,0,1,754.893,438.189Z" transform="translate(-641.274 -363.9)" opacity="0.1"/>
    <ellipse id="Ellipse_85" data-name="Ellipse 85" cx="0.842" cy="0.259" rx="0.842" ry="0.259" transform="translate(109.793 73.238)" fill="#f2f2f2"/>
    <path id="Path_246" data-name="Path 246" d="M396.936,415.2v.648H362.071v-.518l.048-.13Z" transform="translate(-296.734 -340.273)" opacity="0.1"/>
    <path id="Path_247" data-name="Path 247" d="M659.719,212.553c-.275-.275-3.805-4.722-4.4-5.456-.642-.734-.917-.6-1.33-.55s-4.86.825-5.364.871c-.5.092-.825.275-.5.734.275.413,3.209,4.539,3.851,5.5l-11.691,2.8-9.261-15.542c-.367-.55-.458-.734-1.284-.688s-7.29.6-7.748.6c-.458.046-.963.229-.5,1.33s7.794,16.871,7.977,17.33a1.576,1.576,0,0,0,1.971.917c1.284-.321,5.685-1.467,8.115-2.109,1.284,2.292,3.851,6.969,4.355,7.656.642.917,1.1.734,2.063.458.779-.229,12.012-4.264,12.516-4.493s.825-.367.458-.871c-.275-.367-3.209-4.355-4.768-6.419,1.054-.275,4.86-1.284,5.272-1.421.458-.138.55-.367.275-.642Zm-21.227,4.355c-.138.046-6.694,1.6-7.015,1.7-.367.092-.367.046-.367-.092-.092-.138-7.794-16.092-7.931-16.275-.092-.183-.092-.367,0-.367s6.189-.55,6.373-.55c.229,0,.183.046.275.183,0,0,8.573,14.808,8.711,15.038.183.229.092.321-.046.367Zm18.43,3.438c.092.183.229.275-.138.367-.321.138-11.049,3.759-11.278,3.851s-.367.138-.642-.275-3.759-6.419-3.759-6.419l11.416-2.98c.275-.092.367-.138.55.138.183.321,3.759,5.181,3.851,5.318Zm.734-8.069c-.275.046-4.447,1.1-4.447,1.1l-3.438-4.676c-.092-.138-.183-.275.046-.321s4.126-.734,4.31-.779.321-.092.55.229c.229.275,3.163,4.034,3.3,4.172S657.931,212.232,657.656,212.278Z" transform="translate(-539.593 -170.697)" fill="#fb503b"/>
    <circle id="Ellipse_86" data-name="Ellipse 86" cx="6.902" cy="6.902" r="6.902" transform="translate(64.312 21.23)" fill="#ffb9b9"/>
    <path id="Path_248" data-name="Path 248" d="M534.957,207.537v10.9h11.261s-1.453-9.081-.727-11.806Z" transform="translate(-468.829 -175.954)" fill="#ffb9b9"/>
    <path id="Path_249" data-name="Path 249" d="M492.958,252.2s-10.716-5.267-10.716-5.63-1.09-2.724-1.816-2.724-6.9-2-10.353.908l-.363,2.361-13.259,8.718,3.632,13.259s2.361,2.543,1.635,4.359.545,11.079.545,11.079l28.515-.908V271.272a28.815,28.815,0,0,1,1.453-3.814c.545-.908,0-3.632,0-3.632l4.359-5.449S496.045,253.291,492.958,252.2Z" transform="translate(-404.49 -205.908)" fill="#d0cde1"/>
    <path id="Path_250" data-name="Path 250" d="M443.508,317.766l.817-4.45S439.6,333.84,440.148,336.2s4.541,5.994,5.085,6.175,5.63-15.62,5.63-15.62Z" transform="translate(-391.093 -263.39)" opacity="0.1"/>
    <path id="Path_251" data-name="Path 251" d="M440.368,310.3l-3.088.545s-4.722,20.523-4.177,22.885,4.541,5.994,5.085,6.175,5.63-15.62,5.63-15.62Z" transform="translate(-385.319 -260.916)" fill="#d0cde1"/>
    <path id="Path_252" data-name="Path 252" d="M641.607,330.4l1.544-3s2.18,20.524.727,22.521-7.2,2.745-7.2,2.745l-.064-14.914Z" transform="translate(-552.141 -274.938)" opacity="0.1"/>
    <path id="Path_253" data-name="Path 253" d="M646.829,314.323l2.361,2.361s2.18,20.524.727,22.521-7.2,2.745-7.2,2.745l-.064-14.914Z" transform="translate(-557.09 -264.215)" fill="#d0cde1"/>
    <path id="Path_254" data-name="Path 254" d="M441.737,485.064s-5.267-2-6.175,1.816,2.179,20.887,2.179,20.887,2,12.9,3.269,13.259,6.9.545,7.81-1.09-2.724-18.344-2.724-18.344l21.068-.363s-1.271,14.53-2,15.8-.727,5.63,0,5.63,8.718-.363,9.263-1.453,3.632-25.609,3.632-25.609,2.543-8.536-.363-7.991S441.737,485.064,441.737,485.064Z" transform="translate(-387.233 -403.717)" fill="#3f3d56"/>
    <path id="Path_255" data-name="Path 255" d="M610.482,681.139s1.816-1.271,2.724,0,1.271,2.724-2.724,4.9-7.083,1.635-7.083,1.271v-5.267Z" transform="translate(-524.92 -564.375)" fill="#2f2e41"/>
    <path id="Path_256" data-name="Path 256" d="M453.471,678.12s-1.816-1.271-2.724,0-1.271,2.724,2.724,4.9,7.083,1.635,7.083,1.271v-5.267Z" transform="translate(-399.33 -561.901)" fill="#2f2e41"/>
    <path id="Path_257" data-name="Path 257" d="M527.745,144.3a5.837,5.837,0,0,0-2.027.289,7.836,7.836,0,0,0-1.444.764l-3.047,1.895a1.427,1.427,0,0,0-.86,1.33l-.381,2.851a3.712,3.712,0,0,0,.137,2.14,5.9,5.9,0,0,0,1.2,1.35,4.955,4.955,0,0,1,1.306,2.537c.218,1.191.078,2.624,1.021,3.384a3.2,3.2,0,0,0,1.86.527,27.751,27.751,0,0,0,5.36-.206,2.133,2.133,0,0,0,.81-.227,2.223,2.223,0,0,0,.71-.845,7.572,7.572,0,0,0,1.374-3.734,3.992,3.992,0,0,1,.145-1.961,7.668,7.668,0,0,1,.548-.712,3.933,3.933,0,0,0,.536-1.947c.206-2.167-.009-3.816-1.606-5.343A8.273,8.273,0,0,0,527.745,144.3Z" transform="translate(-456.487 -124.867)" fill="#2f2e41"/>
    <path id="Path_258" data-name="Path 258" d="M273.408,569.7l-6.062,30.813h3.031l5.809-30.308Z" transform="translate(-219.103 -466.899)" fill="#2f2e41"/>
    <path id="Path_259" data-name="Path 259" d="M408.708,579.111l3.789,35.359h2.526l-2.273-36.37Z" transform="translate(-334.956 -473.781)" fill="#2f2e41"/>
    <path id="Path_260" data-name="Path 260" d="M466.093,575.807l5.3,23.489h2.526L468.871,575.3Z" transform="translate(-381.986 -471.488)" fill="#2f2e41"/>
    <path id="Path_261" data-name="Path 261" d="M350.682,578.1l-.758,18.69h2.021l1.515-18.69Z" transform="translate(-286.779 -473.781)" fill="#2f2e41"/>
    <path id="Path_262" data-name="Path 262" d="M442.473,460.445s-4.041-27.025,7.324-27.782,27.53,0,27.53,0,9.345-.758,6.567,27.782c0,0,2.526,8.335-20.205,7.577S442.473,460.445,442.473,460.445Z" transform="translate(-392.462 -360.924)" fill="#6c63ff"/>
    <path id="Path_263" data-name="Path 263" d="M962.662,600.678c0,4.713-2.8,6.358-6.257,6.358s-6.257-1.645-6.257-6.358S956.4,589.97,956.4,589.97,962.662,595.965,962.662,600.678Z" transform="translate(-809.097 -490.121)" fill="#6c63ff"/>
    <path id="Path_264" data-name="Path 264" d="M803.7,565.728l2.667-4.879-2.657,4.26.029-1.773,1.838-3.53-1.831,3.061.052-3.19,1.968-2.81-1.96,2.309.032-5.848-.195,7.411-1.993-3.051,1.969,3.676-.186,3.562-.006-.095-2.307-3.223,2.3,3.557-.023.445,0,.007,0,.037-.473,4.753h.632l.076-.384,2.294-3.549-2.289,3.2Z" transform="translate(-656.559 -453.478)" fill="#3f3d56"/>
    <path id="Path_265" data-name="Path 265" d="M795.833,655.06h-7.46l-1.928-10.9h10.9Z" transform="translate(-644.529 -527.922)" fill="#2f2e41"/>
  </g>
</svg>
