<svg xmlns="http://www.w3.org/2000/svg" width="754.398" height="506.066" viewBox="0 0 754.398 506.066">
  <g id="book_reading" data-name="book reading" transform="translate(0)">
    <rect id="Rectangle_1" data-name="Rectangle 1" width="711.084" height="1.531" transform="translate(21.068 490.109)" fill="#3f3d56"/>
    <rect id="Rectangle_2" data-name="Rectangle 2" width="1.531" height="711.084" transform="translate(76.402 213.794) rotate(-67.078)" fill="#3f3d56"/>
    <rect id="Rectangle_3" data-name="Rectangle 3" width="711.084" height="1.531" transform="translate(21.068 212.258)" fill="#3f3d56"/>
    <path id="Path_1" data-name="Path 1" d="M789.952,374.472a246.52,246.52,0,0,1-71.744,174.6q-3.777,3.8-7.723,7.425-4.753,4.386-9.752,8.5c-.635.528-1.271,1.049-1.914,1.561a240.145,240.145,0,0,1-42.527,27.578c-.9.452-1.791.9-2.694,1.347-1.431.7-2.878,1.393-4.325,2.067a238.186,238.186,0,0,1-170.882,11.6c-98.794-30.663-170.66-124.13-170.66-234.681,0-135.489,107.949-245.32,241.11-245.32S789.952,238.984,789.952,374.472Z" transform="translate(-154.244 -128.919)" fill="#6c63ff"/>
    <path id="Path_2" data-name="Path 2" d="M664.989,363.349l.191-.007-.755-1.658a46.3,46.3,0,0,0-3.1-6.806L639.178,306.25a8.758,8.758,0,0,0-8.117-5.127l-28.048.467a8.759,8.759,0,0,0-8.164,5.99L577.216,360.54a46.24,46.24,0,0,0-1.508,4.53l-.6,1.8.141-.005a46.578,46.578,0,1,0,89.739-3.513Z" transform="translate(-216.708 -169.258)" fill="#d0cde1"/>
    <rect id="Rectangle_4" data-name="Rectangle 4" width="49.049" height="1.012" transform="translate(387.182 192.47) rotate(-79.634)" fill="#3f3d56"/>
    <rect id="Rectangle_5" data-name="Rectangle 5" width="1.012" height="49.049" transform="translate(405.626 144.264) rotate(-12.264)" fill="#3f3d56"/>
    <path id="Path_3" data-name="Path 3" d="M607.6,270.526l35.941-.6a1.013,1.013,0,1,1,.034,2.025l-35.94.6a1.013,1.013,0,1,1-.034-2.025Z" transform="translate(-224.35 -161.94)" fill="#3f3d56"/>
    <path id="Path_4" data-name="Path 4" d="M608.095,280.44l35.941-.6a1.013,1.013,0,1,1,.034,2.025l-35.941.6a1.013,1.013,0,1,1-.034-2.025Z" transform="translate(-224.467 -164.266)" fill="#3f3d56"/>
    <path id="Path_5" data-name="Path 5" d="M608.591,290.354l35.941-.6a1.013,1.013,0,1,1,.034,2.025l-35.941.6a1.013,1.013,0,1,1-.034-2.025Z" transform="translate(-224.583 -166.592)" fill="#3f3d56"/>
    <path id="Path_6" data-name="Path 6" d="M627.313,260.883c-7.129.119-12.842,4.188-12.76,9.09l25.817-.43C640.287,264.641,634.443,260.764,627.313,260.883Z" transform="translate(-226.215 -159.819)" fill="#3f3d56"/>
    <path id="Path_7" data-name="Path 7" d="M629.984,389.614a6.238,6.238,0,0,1,3.786,1.618c.267.221.529.453.792.686a7.907,7.907,0,0,0,2.983,1.952c2.474.675,4.916-1.281,6.977-3.284l.706.726c-2.266,2.2-4.982,4.344-7.949,3.535a8.775,8.775,0,0,1-3.387-2.17c-.255-.226-.51-.451-.768-.665-.846-.7-2.48-1.793-3.933-1.227A4.931,4.931,0,0,0,627.615,392a9.434,9.434,0,0,1-1.094.985,4.959,4.959,0,0,1-5.495.163,9.811,9.811,0,0,1-.86-.645,2.52,2.52,0,0,0-4.1.218,5.236,5.236,0,0,1-2.865,1.423l-.11,0c-2.018.034-3.3-1.985-4.089-3.519l.9-.464c1.076,2.086,2.113,3.036,3.246,2.968a4.452,4.452,0,0,0,2.294-1.209c.958-.752,1.95-1.529,3.236-1.349a4.379,4.379,0,0,1,2.123,1.141,8.922,8.922,0,0,0,.77.58,3.979,3.979,0,0,0,4.351-.129,8.546,8.546,0,0,0,.975-.883,5.752,5.752,0,0,1,1.924-1.444,3.33,3.33,0,0,1,1.162-.226Z" transform="translate(-224.913 -190.016)" fill="#3f3d56"/>
    <rect id="Rectangle_6" data-name="Rectangle 6" width="1.052" height="101.023" transform="translate(401.188)" fill="#3f3d56"/>
    <path id="Path_8" data-name="Path 8" d="M1036.755,342.967c-6.416,23.717-28.392,38.406-28.392,38.406s-11.574-23.765-5.158-47.482,28.392-38.406,28.392-38.406S1043.169,319.249,1036.755,342.967Z" transform="translate(-316.927 -167.936)" fill="#6c63ff"/>
    <path id="Path_9" data-name="Path 9" d="M970.779,342.967c6.416,23.717,28.392,38.406,28.392,38.406s11.574-23.765,5.158-47.482-28.392-38.406-28.392-38.406S964.363,319.249,970.779,342.967Z" transform="translate(-309.32 -167.936)" fill="#6c63ff"/>
    <path id="Path_10" data-name="Path 10" d="M970.206,345.165c17.6,17.138,19.756,43.483,19.756,43.483s-26.394-1.441-44-18.579-19.756-43.484-19.756-43.484S952.6,328.026,970.206,345.165Z" transform="translate(-299.32 -175.231)" fill="#3f3d56"/>
    <path id="Path_11" data-name="Path 11" d="M1029.256,345.165c-17.6,17.138-19.756,43.483-19.756,43.483s26.394-1.441,44-18.579,19.756-43.484,19.756-43.484S1046.861,328.026,1029.256,345.165Z" transform="translate(-318.858 -175.231)" fill="#3f3d56"/>
    <path id="Path_12" data-name="Path 12" d="M217.752,704.967c-6.416,23.717-28.392,38.406-28.392,38.406s-11.574-23.765-5.158-47.482,28.392-38.406,28.392-38.406S224.168,681.249,217.752,704.967Z" transform="translate(-124.813 -252.85)" fill="#6c63ff"/>
    <path id="Path_13" data-name="Path 13" d="M151.779,704.967c6.416,23.717,28.392,38.406,28.392,38.406s11.574-23.765,5.158-47.482-28.392-38.406-28.392-38.406S145.363,681.249,151.779,704.967Z" transform="translate(-117.208 -252.85)" fill="#6c63ff"/>
    <path id="Path_14" data-name="Path 14" d="M151.206,707.165c17.606,17.138,19.756,43.483,19.756,43.483s-26.394-1.441-44-18.579-19.756-43.484-19.756-43.484S133.6,690.026,151.206,707.165Z" transform="translate(-107.207 -260.145)" fill="#3f3d56"/>
    <path id="Path_15" data-name="Path 15" d="M210.256,707.165C192.65,724.3,190.5,750.648,190.5,750.648s26.394-1.441,44-18.579,19.756-43.484,19.756-43.484S227.861,690.026,210.256,707.165Z" transform="translate(-126.745 -260.145)" fill="#3f3d56"/>
    <circle id="Ellipse_1" data-name="Ellipse 1" cx="14.723" cy="14.723" r="14.723" transform="translate(498.377 203.57)" fill="#2f2e41"/>
    <path id="Path_16" data-name="Path 16" d="M755.966,401.281a14.722,14.722,0,0,1,13.144-14.636,14.723,14.723,0,1,0,0,29.271A14.722,14.722,0,0,1,755.966,401.281Z" transform="translate(-258.641 -189.299)" fill="#2f2e41"/>
    <path id="Path_17" data-name="Path 17" d="M758.273,414.036s-2.286,10.516,12,14.723Z" transform="translate(-259.896 -195.744)" fill="#6c63ff"/>
    <circle id="Ellipse_2" data-name="Ellipse 2" cx="49.426" cy="49.426" r="49.426" transform="translate(469.763 219.443)" fill="#2f2e41"/>
    <path id="Path_18" data-name="Path 18" d="M797.637,694.575c-.635.528-1.271,1.049-1.914,1.561A240.145,240.145,0,0,1,753.2,723.715c-.9.452-1.791.9-2.694,1.347-1.431.7-2.878,1.393-4.325,2.067l-25.336-8.443.291-6.07v-.023l1.1-23.147.375-7.915Z" transform="translate(-251.147 -258.491)" fill="#a0616a"/>
    <path id="Path_19" data-name="Path 19" d="M748.876,734.55c-1.431.7-2.878,1.393-4.325,2.067A234.927,234.927,0,0,1,714,748.382a1.7,1.7,0,0,1-.092-.475l5.3-25.925.291.122Z" transform="translate(-249.521 -267.979)" fill="#2f2e41"/>
    <circle id="Ellipse_3" data-name="Ellipse 3" cx="32.731" cy="32.731" r="32.731" transform="translate(474.12 255.845)" fill="#a0616a"/>
    <path id="Path_20" data-name="Path 20" d="M785.893,508.171S791.2,534.71,800.932,540.9L746.97,604.6l-20.346-19.462,15.039-26.539s16.808-9.731,11.5-23Z" transform="translate(-252.503 -217.825)" fill="#a0616a"/>
    <path id="Path_21" data-name="Path 21" d="M867.553,606.911a245.613,245.613,0,0,1-33.465,41.915c-.543-11.864-1.722-21.646-4.034-24.54a.023.023,0,0,1-.015-.008l-28.3-8.841s6.192-58.387,21.233-61.035c0,0,2.182.444,5.572,1.47,10.93,3.291,34.4,12.568,37.774,32.14a108.63,108.63,0,0,1,1.232,18.9Z" transform="translate(-270.124 -228.67)" fill="#a0616a"/>
    <path id="Path_22" data-name="Path 22" d="M674.236,574.045s-26.539-.885-43.347,20.346-57.5,37.154-57.5,37.154L471.657,671.355s-18.577-32.731-30.077-21.231,21.231,40.693,36.27,37.154S584,656.316,584,656.316l72.539-32.731Z" transform="translate(-185.077 -233.276)" fill="#a0616a"/>
    <path id="Path_23" data-name="Path 23" d="M807.329,622.827l-3.689,31.964q-4.753,4.386-9.752,8.5c-.635.528-1.271,1.049-1.914,1.561-25.542-7.83-65.567-6.958-73.489-6.69-.9.023-1.393.046-1.393.046l-.88-18.577c-8.489-2.824-11.275-9-11.351-15.8-.13-12.323,8.7-26.668,8.7-26.668,1.584-1.584,13.426-24.034,15.875-28.688.283-.543.444-.842.444-.842l10.617-2.648s-.031.084-.092.237c-.949,2.656-9.2,26.683,5.006,27.517,13.977.827,44.38-38.425,48.567-43.928l.482-.635,11.5,6.192c-.046.015-.092.023-.138.038-7.027,1.952-13.533,18.875-13.533,18.875-18.347,32.332,14.222,49.125,15.025,49.531A.024.024,0,0,0,807.329,622.827Z" transform="translate(-247.398 -227.211)" fill="#d0cde1"/>
    <path id="Path_24" data-name="Path 24" d="M762.04,455.666c-17.424,0-31.548,8.239-31.548,18.4,0,4.548,2.839,8.7,7.526,11.915l6.073-4.4-1.652,6.894c.685.318,1.385.625,2.115.909l9.073-10.585v13a52.962,52.962,0,0,0,8.413.667c17.424,0,31.548-8.239,31.548-18.4S779.463,455.666,762.04,455.666Z" transform="translate(-253.411 -205.509)" fill="#2f2e41"/>
    <circle id="Ellipse_4" data-name="Ellipse 4" cx="14.723" cy="14.723" r="14.723" transform="translate(558.532 226.57)" fill="#2f2e41"/>
    <path id="Path_25" data-name="Path 25" d="M834.557,431.33A14.722,14.722,0,0,1,847.7,416.695a14.881,14.881,0,0,0-1.575-.087,14.723,14.723,0,1,0,1.577,29.358,14.722,14.722,0,0,1-13.145-14.635Z" transform="translate(-277.076 -196.347)" fill="#2f2e41"/>
    <path id="Path_26" data-name="Path 26" d="M836.863,444.085s-2.287,10.516,12,14.723Z" transform="translate(-278.331 -202.793)" fill="#6c63ff"/>
    <ellipse id="Ellipse_5" data-name="Ellipse 5" cx="2.556" cy="5.75" rx="2.556" ry="5.75" transform="translate(538.354 280.172)" fill="#a0616a"/>
    <path id="Path_27" data-name="Path 27" d="M429.589,519.342l-38.79,9.4-.126.03-4.217,3.817-1.214,1.1-2.6-.471-4.606-.832,3.21-10.832.6-20.662-2.207-12.638,12.237-8.425S415.748,478.419,429.589,519.342Z" transform="translate(-170.735 -211.175)" fill="#d0cde1"/>
    <path id="Path_28" data-name="Path 28" d="M390.8,528.741c-.526,1.121.576.381-.026,1.535l-5.617,1.805-2.516,1.133-4.606-.832,3.21-10.832.6-20.662-2.207-12.638,12.237-8.425S405.01,498.425,390.8,528.741Z" transform="translate(-170.735 -211.176)" opacity="0.1"/>
    <path id="Path_29" data-name="Path 29" d="M477.4,492.667s-50.952,23.671-71.614,27.281-18.856,24.272-18.856,24.272l115.745-18.054S498.667,507.512,477.4,492.667Z" transform="translate(-172.813 -214.189)" fill="#d0cde1"/>
    <path id="Path_30" data-name="Path 30" d="M376.418,487.083s8.826,21.464-1,48.144l11.434,5.216,4.413-5.216.1-.5-12.136-1.1s10.03-26.88,1.805-45.536C381.031,488.086,379.226,484.074,376.418,487.083Z" transform="translate(-170.12 -212.616)" fill="#6c63ff"/>
    <path id="Path_31" data-name="Path 31" d="M544.689,654.2c-45.134-10.03-87.16,10.732-87.16,10.732l-.114-.1-16.736-14.943-65.4-106.719,15.948.1C435.563,516.785,497.949,520.4,497.949,520.4,524.83,550.887,544.689,654.2,544.689,654.2Z" transform="translate(-170.089 -220.654)" fill="#3f3d56"/>
    <path id="Path_32" data-name="Path 32" d="M457.414,671.853l-16.736-14.943-65.4-106.719,15.948.1S454.793,634.242,457.414,671.853Z" transform="translate(-170.089 -227.682)" opacity="0.1"/>
    <ellipse id="Ellipse_6" data-name="Ellipse 6" cx="25.877" cy="16.449" rx="25.877" ry="16.449" transform="translate(260.285 337.039) rotate(-17.052)" fill="#d0cde1"/>
    <circle id="Ellipse_7" data-name="Ellipse 7" cx="14.543" cy="14.543" r="14.543" transform="translate(6.731 197.597)" fill="#3f3d56"/>
    <circle id="Ellipse_8" data-name="Ellipse 8" cx="14.543" cy="14.543" r="14.543" transform="translate(717.049 476.979)" fill="#3f3d56"/>
    <circle id="Ellipse_9" data-name="Ellipse 9" cx="11.481" cy="11.481" r="11.481" transform="translate(73.323 202.19)" fill="#6c63ff"/>
    <circle id="Ellipse_10" data-name="Ellipse 10" cx="11.481" cy="11.481" r="11.481" transform="translate(720.111 202.19)" fill="#6c63ff"/>
    <circle id="Ellipse_11" data-name="Ellipse 11" cx="11.481" cy="11.481" r="11.481" transform="translate(9.792 478.51)" fill="#6c63ff"/>
  </g>
</svg>
