<svg xmlns="http://www.w3.org/2000/svg" width="213.99" height="146.354" viewBox="0 0 213.99 146.354">
  <g id="game_level_2" data-name="game level 2" transform="translate(-0.002 -0.103)">
    <path id="Path_314" data-name="Path 314" d="M916.662,380.107q4.424,4.64,9.872,1.481a11.334,11.334,0,0,1-1.481-7.9h-7.075C918.292,376.149,918.207,378.439,916.662,380.107Z" transform="translate(-732.948 -318.91)" fill="#ffb8b8"/>
    <path id="Path_315" data-name="Path 315" d="M796.225,479.892l3.784-1.974,1.645-20.9V446l-8.721-.164,2.468,11.024Z" transform="translate(-600.828 -337.742)" fill="#ffb8b8"/>
    <path id="Path_316" data-name="Path 316" d="M744.257,479.892l-3.784-1.974-1.645-20.9V446l8.72-.164-2.468,11.024Z" transform="translate(-559.83 -337.742)" fill="#ffb8b8"/>
    <path id="Path_317" data-name="Path 317" d="M892.006,558.635l9.214-.823,1.481-8.391,1.81,8.227,10.037-.658a35.089,35.089,0,0,0-1.645-12.34l-22.048-.494Z" transform="translate(-713.392 -448.077)" fill="#2f2e41"/>
    <path id="Path_318" data-name="Path 318" d="M806.2,430.311l-11.083-8.535a1.612,1.612,0,0,0-.376-.216l-1.611-.655c-1.294-.526-3.758-2.277-2.556-4.08.969-1.454,4.679,1.15,5.135,2.115a1.594,1.594,0,0,0,.676.715l2.252,1.234a1.61,1.61,0,0,0,.169.08l8.575,3.476a1.612,1.612,0,0,0,1.469-.133l1.555-.986a1.612,1.612,0,0,1,2.445,1.048l.514,2.593a1.612,1.612,0,0,1-1.007,1.82l-4.6,1.753a1.612,1.612,0,0,1-1.558-.229Z" transform="translate(-637.161 -351.267)" fill="#ffb8b8"/>
    <path id="Path_319" data-name="Path 319" d="M864.576,413.864c3.069-.823,2.747,3.464,5.088,5.572l4.6-3.634L871.6,402.894h0a4.8,4.8,0,0,0-3.161,2.895Z" transform="translate(-693.481 -341.038)" fill="#6c63ff"/>
    <path id="Path_320" data-name="Path 320" d="M888.137,432.794h23.2c-3.755-10.118-3.389-20.524-.192-31.129a.79.79,0,0,0-.388-.93l-6.659-3.481c-2.614,1.7-5.423,1.178-8.391-1.152l-7.24,1.974A93.555,93.555,0,0,1,888.137,432.794Z" transform="translate(-711.333 -335.892)" fill="#6c63ff"/>
    <path id="Path_321" data-name="Path 321" d="M876.279,728.09l-9.668.41a1.707,1.707,0,0,1-1.76-1.453h0a1.707,1.707,0,0,1,1.282-1.91l1.64-.4L874.217,721a12.212,12.212,0,0,0,3.877,2.537l.019,2.627A1.915,1.915,0,0,1,876.279,728.09Z" transform="translate(-693.674 -582.076)" fill="#2f2e41"/>
    <path id="Path_322" data-name="Path 322" d="M214.138,602.545H.321v-.528H214.234Z" transform="translate(-0.242 -456.088)" fill="#3f3d56"/>
    <path id="Path_323" data-name="Path 323" d="M966.333,727.484l9.668.41a1.707,1.707,0,0,0,1.76-1.453h0a1.707,1.707,0,0,0-1.282-1.91l-1.64-.4-6.445-3.736a12.212,12.212,0,0,1-3.877,2.537l-.019,2.627A1.915,1.915,0,0,0,966.333,727.484Z" transform="translate(-769.195 -581.617)" fill="#2f2e41"/>
    <circle id="Ellipse_115" data-name="Ellipse 115" cx="5.265" cy="5.265" r="5.265" transform="translate(182.562 47.212)" fill="#ffb8b8"/>
    <path id="Path_324" data-name="Path 324" d="M961.334,481.58l-1.739,3.382a2.379,2.379,0,0,0,1.28,3.315h0a2.379,2.379,0,0,0,3.189-1.884l.726-4.978,2.632-12.5-.165-6.252h-5.265C963.788,467.309,962.9,474.168,961.334,481.58Z" transform="translate(-765.279 -386.324)" fill="#ffb8b8"/>
    <path id="Path_325" data-name="Path 325" d="M966.918,425.75h7.075l-1.027-7.759a6.356,6.356,0,0,0-3.58-4.91h0Z" transform="translate(-771.028 -348.757)" fill="#6c63ff"/>
    <path id="Path_326" data-name="Path 326" d="M917.352,334.688a5.062,5.062,0,0,0-1.107-3.976,4.919,4.919,0,0,0-4.9-1.523c-5.45.9-7.022,5.433-6.488,6.574s2.171,3.786,2.171,3.786-1.2-2.618.1-3.151,6.349-2.633,8.11-1.687a3.156,3.156,0,0,1,1.736,2.659Z" transform="translate(-723.927 -285.111)" fill="#2f2e41"/>
    <path id="Path_327" data-name="Path 327" d="M286.67,175.565l-2.117,1.074a48.016,48.016,0,1,0-63.777,64.951l-1.036,2.136a50.39,50.39,0,1,1,66.93-68.161Z" transform="translate(-183.363 -147.901)" fill="#e6e6e6"/>
    <path id="Path_328" data-name="Path 328" d="M274.368,434.563a16.94,16.94,0,1,0,24.425,23.481l2.916-3.034-24.424-23.481Z" transform="translate(-242.68 -362.736)" fill="#e6e6e6"/>
    <path id="Path_329" data-name="Path 329" d="M291.148,420.8a3.781,3.781,0,0,0,.105,5.34l22.4,21.537a3.777,3.777,0,0,0,5.235-5.445l-22.4-21.537a3.781,3.781,0,0,0-5.34.105Z" transform="translate(-258.18 -353.727)" fill="#535461"/>
    <path id="Path_330" data-name="Path 330" d="M495.383,252.671l2.916-3.034a16.94,16.94,0,0,0-24.425-23.481l-2.916,3.034Z" transform="translate(-395.225 -203.179)" fill="#e6e6e6"/>
    <path id="Path_331" data-name="Path 331" d="M460.3,244.853a3.781,3.781,0,0,0,.105,5.34l22.4,21.537a3.777,3.777,0,0,0,5.235-5.445l-22.4-21.537A3.781,3.781,0,0,0,460.3,244.853Z" transform="translate(-386.348 -220.409)" fill="#535461"/>
    <path id="Path_332" data-name="Path 332" d="M502.593,442.464v-1.75s7.636-4.3,13.84,0V442.3Z" transform="translate(-419.195 -368.249)" fill="#535461"/>
    <path id="Path_333" data-name="Path 333" d="M789.529,442.464v-1.75s7.636-4.3,13.84,0V442.3Z" transform="translate(-636.615 -368.249)" fill="#535461"/>
    <path id="Path_334" data-name="Path 334" d="M475.242,446.758h-7.476s-1.909-2.227-8.272-2.068-7.636,2.068-7.636,2.068-6.283,4.215-7.715,9.465c0,0-7.715,23.146-7.874,41.28s6.84,20.68,10.5,21.157,10.181-.159,16.544-16.226l2.7-9.386s.477-5.568,6.2-2.068,10.817-1.909,10.817-1.909h21.475s7.158,4.454,13.681.954c0,0,2.545-3.341,4.931,7.954,0,0,7.317,23.225,18.612,20.839s10.022-21.793,10.022-21.793-1.511-29.667-7.715-40.167c0,0-5.965-10.9-9.942-11.374,0,0-8.59-1.591-11.931-.159l-1.909,1.591Z" transform="translate(-368.937 -372.702)" fill="#e6e6e6"/>
    <circle id="Ellipse_116" data-name="Ellipse 116" cx="13.84" cy="13.84" r="13.84" transform="translate(75.126 75.805)" fill="#535461"/>
    <circle id="Ellipse_117" data-name="Ellipse 117" cx="13.84" cy="13.84" r="13.84" transform="translate(147.346 75.805)" fill="#535461"/>
    <path id="Path_335" data-name="Path 335" d="M519.533,486.152l-1.845,1.632a.856.856,0,0,1-1.131,0l-1.848-1.632a.854.854,0,0,1-.289-.636v-4.491a.856.856,0,0,1,.856-.854h3.7a.854.854,0,0,1,.856.853v4.489A.854.854,0,0,1,519.533,486.152Z" transform="translate(-428.156 -399.593)" fill="#e6e6e6"/>
    <path id="Path_336" data-name="Path 336" d="M519.533,524.562l-1.845-1.631a.856.856,0,0,0-1.131,0l-1.848,1.632a.854.854,0,0,0-.289.636v4.486a.854.854,0,0,0,.853.856h3.7a.854.854,0,0,0,.856-.853V525.2A.854.854,0,0,0,519.533,524.562Z" transform="translate(-428.156 -431.832)" fill="#e6e6e6"/>
    <path id="Path_337" data-name="Path 337" d="M494.151,511.56l1.632-1.848a.856.856,0,0,0,0-1.131l-1.632-1.848a.856.856,0,0,0-.636-.289h-4.486a.856.856,0,0,0-.854.856V511a.854.854,0,0,0,.853.856h4.489A.854.854,0,0,0,494.151,511.56Z" transform="translate(-408.27 -419.5)" fill="#e6e6e6"/>
    <path id="Path_338" data-name="Path 338" d="M532.548,511.555l-1.629-1.85a.854.854,0,0,1,0-1.131l1.632-1.848a.854.854,0,0,1,.636-.289h4.486a.854.854,0,0,1,.856.853v3.7a.854.854,0,0,1-.853.856h-4.488a.854.854,0,0,1-.641-.291Z" transform="translate(-440.497 -419.495)" fill="#e6e6e6"/>
    <circle id="Ellipse_118" data-name="Ellipse 118" cx="10.022" cy="10.022" r="10.022" transform="translate(97.715 94.735)" fill="#535461"/>
    <circle id="Ellipse_119" data-name="Ellipse 119" cx="10.022" cy="10.022" r="10.022" transform="translate(132.393 94.735)" fill="#535461"/>
    <circle id="Ellipse_120" data-name="Ellipse 120" cx="6.681" cy="6.681" r="6.681" transform="translate(101.055 98.076)" fill="#e6e6e6"/>
    <path id="Path_339" data-name="Path 339" d="M588.625,570.159a4.613,4.613,0,1,1,4.613-4.613A4.613,4.613,0,0,1,588.625,570.159Zm0-8.908a4.3,4.3,0,1,0,4.3,4.295,4.3,4.3,0,0,0-4.3-4.295Z" transform="translate(-480.889 -460.789)" fill="#535461"/>
    <circle id="Ellipse_121" data-name="Ellipse 121" cx="6.681" cy="6.681" r="6.681" transform="translate(135.734 98.076)" fill="#e6e6e6"/>
    <path id="Path_340" data-name="Path 340" d="M731.765,570.159a4.613,4.613,0,1,1,4.613-4.613A4.613,4.613,0,0,1,731.765,570.159Zm0-8.908a4.3,4.3,0,1,0,4.3,4.295,4.3,4.3,0,0,0-4.3-4.295Z" transform="translate(-589.35 -460.789)" fill="#535461"/>
    <circle id="Ellipse_122" data-name="Ellipse 122" cx="2.863" cy="2.863" r="2.863" transform="translate(122.53 103.007)" fill="#535461"/>
    <circle id="Ellipse_123" data-name="Ellipse 123" cx="0.625" cy="0.625" r="0.625" transform="translate(120.392 95.688)" fill="#535461"/>
    <circle id="Ellipse_124" data-name="Ellipse 124" cx="0.625" cy="0.625" r="0.625" transform="translate(122.734 95.688)" fill="#535461"/>
    <circle id="Ellipse_125" data-name="Ellipse 125" cx="0.625" cy="0.625" r="0.625" transform="translate(122.422 98.655)" fill="#535461"/>
    <circle id="Ellipse_126" data-name="Ellipse 126" cx="0.636" cy="0.636" r="0.636" transform="translate(124.598 98.712)" fill="#535461"/>
    <circle id="Ellipse_127" data-name="Ellipse 127" cx="0.625" cy="0.625" r="0.625" transform="translate(126.794 98.655)" fill="#535461"/>
    <circle id="Ellipse_128" data-name="Ellipse 128" cx="0.625" cy="0.625" r="0.625" transform="translate(121.485 97.251)" fill="#535461"/>
    <circle id="Ellipse_129" data-name="Ellipse 129" cx="0.636" cy="0.636" r="0.636" transform="translate(123.485 97.281)" fill="#535461"/>
    <circle id="Ellipse_130" data-name="Ellipse 130" cx="0.636" cy="0.636" r="0.636" transform="translate(125.553 97.281)" fill="#535461"/>
    <circle id="Ellipse_131" data-name="Ellipse 131" cx="0.625" cy="0.625" r="0.625" transform="translate(127.73 97.251)" fill="#535461"/>
    <circle id="Ellipse_132" data-name="Ellipse 132" cx="0.636" cy="0.636" r="0.636" transform="translate(124.598 95.69)" fill="#535461"/>
    <circle id="Ellipse_133" data-name="Ellipse 133" cx="0.636" cy="0.636" r="0.636" transform="translate(126.825 95.69)" fill="#535461"/>
    <circle id="Ellipse_134" data-name="Ellipse 134" cx="0.625" cy="0.625" r="0.625" transform="translate(128.667 95.688)" fill="#535461"/>
    <path id="Path_341" data-name="Path 341" d="M574.3,458.847a1.111,1.111,0,0,0-1.11,1.11V463.3a1.111,1.111,0,0,0,1.11,1.11h.8a1.111,1.111,0,0,0,1.11-1.11v-3.341a1.111,1.111,0,0,0-1.11-1.11Z" transform="translate(-472.691 -383.435)" fill="#535461"/>
    <path id="Path_342" data-name="Path 342" d="M766.031,458.847a1.111,1.111,0,0,0-1.11,1.11V463.3a1.111,1.111,0,0,0,1.11,1.11h.8a1.111,1.111,0,0,0,1.11-1.11v-3.341a1.111,1.111,0,0,0-1.11-1.11Z" transform="translate(-617.969 -383.436)" fill="#535461"/>
    <circle id="Ellipse_135" data-name="Ellipse 135" cx="3.818" cy="3.818" r="3.818" transform="translate(157.527 77.396)" fill="#e6e6e6"/>
    <circle id="Ellipse_136" data-name="Ellipse 136" cx="3.818" cy="3.818" r="3.818" transform="translate(149.414 85.509)" fill="#e6e6e6"/>
    <circle id="Ellipse_137" data-name="Ellipse 137" cx="3.818" cy="3.818" r="3.818" transform="translate(165.958 85.032)" fill="#e6e6e6"/>
    <circle id="Ellipse_138" data-name="Ellipse 138" cx="3.818" cy="3.818" r="3.818" transform="translate(158.163 93.463)" fill="#e6e6e6"/>
    <path id="Path_343" data-name="Path 343" d="M597.421,449.654a3.221,3.221,0,0,0-3.218,3.218v14.237a3.221,3.221,0,0,0,3.218,3.218h32.69a3.221,3.221,0,0,0,3.218-3.218V452.872a3.221,3.221,0,0,0-3.218-3.218Z" transform="translate(-488.611 -376.47)" fill="#535461"/>
    <path id="Path_344" data-name="Path 344" d="M818.842,476.62h-5.177l2.5-4.285Zm-4.623-.318h4.049l-2.094-3.351Z" transform="translate(-654.904 -393.656)" fill="#535461"/>
    <path id="Path_345" data-name="Path 345" d="M786.273,512.223h-4.295V508.4h4.3ZM782.3,511.9h3.659v-3.182H782.3Z" transform="translate(-630.894 -420.987)" fill="#535461"/>
    <path id="Path_346" data-name="Path 346" d="M851.666,509.238a2.386,2.386,0,1,1,2.386-2.386A2.386,2.386,0,0,1,851.666,509.238Zm0-4.454a2.068,2.068,0,1,0,2.068,2.068,2.068,2.068,0,0,0-2.068-2.068Z" transform="translate(-681.89 -418.002)" fill="#535461"/>
    <rect id="Rectangle_100" data-name="Rectangle 100" width="0.318" height="5.062" transform="translate(160.04 95.603) rotate(-45)" fill="#535461"/>
    <rect id="Rectangle_101" data-name="Rectangle 101" width="5.063" height="0.318" transform="translate(160.042 98.877) rotate(-43.734)" fill="#535461"/>
    <path id="Path_347" data-name="Path 347" d="M230.364,258.674c-8.686,2.395-18.2,4.2-21.6,1.4a19.086,19.086,0,0,0,3.033-9.174,5.275,5.275,0,0,1,1.552-3.659,5.9,5.9,0,0,1,4.925-1.6l2.254.316q.114.016.226.036a5.272,5.272,0,0,1,4.238,4.442A11.39,11.39,0,0,0,230.364,258.674Z" transform="translate(-196.549 -221.839)" fill="#2f2e41"/>
    <path id="Path_348" data-name="Path 348" d="M295.459,361.045l3.377.7a1.773,1.773,0,0,1,1.27,2.439h0a1.773,1.773,0,0,1-2.558.809l-5.165-3.177-8.773-20.623,4.544-1.314Z" transform="translate(-253.266 -293.287)" fill="#a0616a"/>
    <path id="Path_349" data-name="Path 349" d="M60.82,377.678l-2.557.744-1.935-4L58.3,373.4Z" transform="translate(-42.68 -282.857)" fill="#a0616a"/>
    <path id="Path_350" data-name="Path 350" d="M59.7,442.29l-3.137-.831.491-5.389,2.7.166Z" transform="translate(-42.855 -330.345)" fill="#a0616a"/>
    <path id="Path_351" data-name="Path 351" d="M176.63,441.875l-3.322,2.186-12.778-14.454a2.848,2.848,0,0,1,.673-4.331l15.919-9.512,2.438,7-8.289,7.779Z" transform="translate(-159.462 -350.791)" fill="#2f2e41"/>
    <path id="Path_352" data-name="Path 352" d="M221.42,534.641l-.025.032a5.66,5.66,0,0,1-1.418,3.2,2.478,2.478,0,0,1-3.01,1.359h0a2.478,2.478,0,0,1-1.719-2.639l.621-5.549a4.144,4.144,0,0,0,3.2-2.837l1.447.986a3.8,3.8,0,0,1,.9,5.45Z" transform="translate(-201.454 -435.991)" fill="#2f2e41"/>
    <circle id="Ellipse_139" data-name="Ellipse 139" cx="5.114" cy="5.114" r="5.114" transform="translate(16.427 25.419)" fill="#a0616a"/>
    <path id="Path_353" data-name="Path 353" d="M238.373,291.384l-8.062,6.677-.628-2.748,1.407-2.145a15.587,15.587,0,0,0-.533-6.887l5.26,0A7.69,7.69,0,0,0,238.373,291.384Z" transform="translate(-212.403 -252.677)" fill="#a0616a"/>
    <path id="Path_354" data-name="Path 354" d="M231.153,322.72l-10.883,3.315-.847-3.871c-2.04-2.739-2.926-5.238-1.592-7.277l-.671-3.07a15.429,15.429,0,0,0,4.273-4.678l6.7-2.616,4.923.3L234.5,309.7Z" transform="translate(-202.914 -266.499)" fill="#6c63ff"/>
    <path id="Path_355" data-name="Path 355" d="M286.509,314.578a11.213,11.213,0,0,0-6.5,1.991l.664-10.8h0a3.919,3.919,0,0,1,3.087,2.35Z" transform="translate(-250.538 -267.446)" fill="#6c63ff"/>
    <path id="Path_356" data-name="Path 356" d="M218.277,428.143l-3.454-.85.508-29.352,4.639-5.08-1.038-6.44-.672-7.214,11.331-2.81c3.83,6.954,6.145,13.276,2.766,17.225Z" transform="translate(-201.143 -320.962)" fill="#2f2e41"/>
    <path id="Path_357" data-name="Path 357" d="M199.873,605.25l-.047.018a6.9,6.9,0,0,1-3.491,2.448,3.02,3.02,0,0,1-4-.472h0a3.02,3.02,0,0,1-.136-3.836l4.136-5.4a5.05,5.05,0,0,0,5.124-.951l.892,1.939a4.637,4.637,0,0,1-2.482,6.258Z" transform="translate(-183.533 -488.159)" fill="#2f2e41"/>
    <path id="Path_358" data-name="Path 358" d="M162.085,385.13l-3.032,2.6a1.968,1.968,0,0,0,.47,3.288h0a1.968,1.968,0,0,0,2.544-.864l2.193-4.09,10.055-18.349L170.533,367Z" transform="translate(-158.364 -313.841)" fill="#a0616a"/>
    <path id="Path_359" data-name="Path 359" d="M210.34,343.7c-1.964-.593-3.8-.942-5.23-.481.3-3.7.915-7.007,2.919-8.587l2.849.335Z" transform="translate(-193.783 -289.314)" fill="#6c63ff"/>
    <path id="Path_360" data-name="Path 360" d="M236.627,254.207l-10.937-.673.135-2.187q5.727-3.862,10.937.673Z" transform="translate(-209.378 -224.86)" fill="#2f2e41"/>
  </g>
</svg>
