<svg xmlns="http://www.w3.org/2000/svg" xmlns:xlink="http://www.w3.org/1999/xlink" width="170" height="146.256" viewBox="0 0 170 146.256">
  <defs>
    <linearGradient id="linear-gradient" x1="0.5" y1="1" x2="0.5" gradientUnits="objectBoundingBox">
      <stop offset="0" stop-color="gray" stop-opacity="0.251"/>
      <stop offset="0.54" stop-color="gray" stop-opacity="0.122"/>
      <stop offset="1" stop-color="gray" stop-opacity="0.102"/>
    </linearGradient>
    <linearGradient id="linear-gradient-2" x1="0.5" y1="1" x2="0.5" y2="0" xlink:href="#linear-gradient"/>
  </defs>
  <g id="game_level_1" data-name="game level 1" transform="translate(0.044 0.008)">
    <path id="Path_266" data-name="Path 266" d="M266.588,109.206c-6.605,11.263-5.705,26.407-3.133,38.307.86,3.984,1.861,8.18.969,12.685A20.4,20.4,0,0,1,256,172.609c-6.691,4.621-14.227,4.654-19.622.087-4.663-3.947-7.646-10.937-12.413-14.667-7.977-6.24-19.16-2.12-28.929,4.075-6.912,4.383-14.53,9.912-20.778,7.006-4.4-2.045-7.046-8.022-8.208-14.563-.562-3.157-.87-6.614-2.254-9a9.164,9.164,0,0,0-3.169-3.117c-10.925-6.962-26.014-.628-36.525-8.542-7.1-5.345-10.976-16.608-12.084-28.718s.252-25.121,1.89-37.943c1.164-9.108,2.691-18.867,7.265-26.353,4.839-7.919,12.295-11.567,18.7-10.965s11.895,4.873,16.6,10.126c5.874,6.569,11.124,15,18.853,17,5.265,1.359,11.08-.465,16.723-1.547,9.432-1.81,18.691-1.542,27.883-1.131,8.8.393,17.65.929,25.794,4.1,5.763,2.244,10.125,7.073,15.491,10.161,3.493,2.012,7.475,2.193,10.713,4.907a17.613,17.613,0,0,1,5.594,17.631C275.827,98.794,270.1,103.227,266.588,109.206Z" transform="translate(-111.66 -29.85)" fill="#6c63ff" opacity="0.1"/>
    <path id="Path_267" data-name="Path 267" d="M195.705,372.938s-11.613-19.234-8.354-36.493a34.032,34.032,0,0,0-2.76-21.356,57.262,57.262,0,0,0-5.47-8.929" transform="translate(-167.415 -258.074)" fill="none" stroke="#535461" stroke-miterlimit="10" stroke-width="2"/>
    <path id="Path_268" data-name="Path 268" d="M145.938,226.643c.67,2.555-2.01,11.178-2.01,11.178s-6.57-6.194-7.242-8.75a4.784,4.784,0,0,1,9.253-2.437Z" transform="translate(-132.235 -189.444)" fill="#6c63ff"/>
    <path id="Path_269" data-name="Path 269" d="M211.867,283.592c-.825,2.51-7.763,8.29-7.763,8.29s-2.15-8.77-1.323-11.28a4.783,4.783,0,1,1,9.086,2.99Z" transform="translate(-186.802 -234.248)" fill="#6c63ff"/>
    <path id="Path_270" data-name="Path 270" d="M238.767,413.137c-1.979,1.74-10.887,3.237-10.887,3.237s2.572-8.656,4.551-10.4a4.783,4.783,0,1,1,6.334,7.168Z" transform="translate(-207.688 -339.521)" fill="#6c63ff"/>
    <path id="Path_271" data-name="Path 271" d="M244.5,527.319c-1.655,2.059-10.182,5.03-10.182,5.03s1.072-8.967,2.727-11.024a4.783,4.783,0,1,1,7.455,5.994Z" transform="translate(-213.007 -434.314)" fill="#6c63ff"/>
    <path id="Path_272" data-name="Path 272" d="M144.167,335.792c2.3,1.3,11.313.9,11.313.9s-4.316-7.932-6.614-9.225a4.783,4.783,0,1,0-4.7,8.328Z" transform="translate(-136.448 -275.113)" fill="#6c63ff"/>
    <path id="Path_273" data-name="Path 273" d="M142.695,463.853c2.583.552,11.073-2.527,11.073-2.527s-6.489-6.276-9.077-6.83a4.783,4.783,0,1,0-2,9.355Z" transform="translate(-134.203 -380.504)" fill="#6c63ff"/>
    <path id="Path_274" data-name="Path 274" d="M168.829,591.264c2.452.98,11.341-.62,11.341-.62s-5.338-7.284-7.791-8.264a4.783,4.783,0,0,0-3.549,8.877Z" transform="translate(-156.561 -485.985)" fill="#6c63ff"/>
    <path id="Path_275" data-name="Path 275" d="M145.938,226.643c.67,2.555-2.01,11.178-2.01,11.178s-6.57-6.194-7.242-8.75a4.784,4.784,0,0,1,9.253-2.437Z" transform="translate(-132.235 -189.444)" fill="#6c63ff"/>
    <path id="Path_276" data-name="Path 276" d="M211.867,283.592c-.825,2.51-7.763,8.29-7.763,8.29s-2.15-8.77-1.323-11.28a4.783,4.783,0,1,1,9.086,2.99Z" transform="translate(-186.802 -234.248)" fill="#6c63ff"/>
    <path id="Path_277" data-name="Path 277" d="M238.767,413.137c-1.979,1.74-10.887,3.237-10.887,3.237s2.572-8.656,4.551-10.4a4.783,4.783,0,1,1,6.334,7.168Z" transform="translate(-207.688 -339.521)" fill="#fc6681"/>
    <path id="Path_278" data-name="Path 278" d="M244.5,527.319c-1.655,2.059-10.182,5.03-10.182,5.03s1.072-8.967,2.727-11.024a4.783,4.783,0,1,1,7.455,5.994Z" transform="translate(-213.007 -434.314)" fill="#fc6681"/>
    <path id="Path_279" data-name="Path 279" d="M144.167,335.792c2.3,1.3,11.313.9,11.313.9s-4.316-7.932-6.614-9.225a4.783,4.783,0,1,0-4.7,8.328Z" transform="translate(-136.448 -275.113)" fill="#6c63ff"/>
    <path id="Path_280" data-name="Path 280" d="M142.695,463.853c2.583.552,11.073-2.527,11.073-2.527s-6.489-6.276-9.077-6.83a4.783,4.783,0,1,0-2,9.355Z" transform="translate(-134.203 -380.504)" fill="#6c63ff"/>
    <path id="Path_281" data-name="Path 281" d="M168.829,591.264c2.452.98,11.341-.62,11.341-.62s-5.338-7.284-7.791-8.264a4.783,4.783,0,0,0-3.549,8.877Z" transform="translate(-156.561 -485.985)" fill="#6c63ff"/>
    <ellipse id="Ellipse_87" data-name="Ellipse 87" cx="83.632" cy="5.744" rx="83.632" ry="5.744" transform="translate(2.693 111.313)" fill="#6c63ff" opacity="0.1"/>
    <path id="Path_282" data-name="Path 282" d="M846.985,325.725s-.139-.186-.332-.4l.056-.019s-2.485-6.212-1.932-8.835-2.209-8.972-2.209-8.972-4.075-8.344-2.146-15a17.878,17.878,0,0,0,.5-2.39c.576-3.944.372-4.757-.594-6.2l-.106-.155a1.218,1.218,0,0,0,.277-.409c.828-2.209-3.864-6.212-2.616-9.94,1.152-3.455-1.847-10.584-2.292-11.609h0l-.05-.117-.15.049a3.641,3.641,0,0,1,.985-2.39l.028-.028c.414-.381.917-.661,1.305-1.07l.023-.026c.038-.036.078-.073.115-.111a1.5,1.5,0,0,0,.439-1.521c-.19-.473-.722-.762-.848-1.257a6.463,6.463,0,0,1-.056-.67c-.1-.7-.778-1.133-1.392-1.478a5.255,5.255,0,0,0-2.449-.881c-1.194,0-2.263.8-3.448.9a4.877,4.877,0,0,0-1.206.12,2.685,2.685,0,0,0-.792.508,3.884,3.884,0,0,0-.386.348,1.24,1.24,0,0,0-.486.9.982.982,0,0,0,.338.67,4.417,4.417,0,0,0,1.6,6.576c.014.1.028.193.042.3a11.3,11.3,0,0,1-.188,4.6c-1.982,1.022-5.072,2.687-5.625,3.427a.522.522,0,0,0-.073.433.59.59,0,0,0-.01.207,1.9,1.9,0,0,1-1.711-.64c-1.657-1.518-6.9-6.074-6.9-6.074s-2.346-5.8-4-4.7,1.932,6.489,1.932,6.489l7.857,8.424s.277,1.794,3.175.828c.957-.318,1.822-.623,2.553-.886l.174.148c-.653,3.819-.99,8.908,1.417,10.4a2.328,2.328,0,0,1,.4.839c-.012.045-.024.092-.035.138a13.257,13.257,0,0,0-.348,2.322,7.383,7.383,0,0,0-.611,3.3l-.922,13.143a13.312,13.312,0,0,0,.828,5.107c.966,2.209,4,13.252,1.932,14.081l.2.026a6.451,6.451,0,0,1-2.353,1.72c-1.156.275-.832,2.047,1.73,2.343s2.87.272,4.672-1.231c1.587-1.323,1.84-1.915,1.876-2.042l.091.012s-.966-3.589,0-5.107-2.207-10.765-2.207-10.765a29.871,29.871,0,0,1,.131-3.54c.487,1.276.835,2.16.835,2.16s.829,4,1.794,4.7,6.074,10.215,5.246,14.356l-.1.482.233-.068h.021a6.467,6.467,0,0,1-1.539,2.492c-.966.7,0,2.209,2.485,1.518s2.76-.828,3.866-2.9S846.985,325.725,846.985,325.725Z" transform="translate(-688.695 -213.589)" fill="url(#linear-gradient)"/>
    <path id="Path_283" data-name="Path 283" d="M904.97,458.857l-.606-.747a7.219,7.219,0,0,0-.855,3.754l-.9,12.85a13,13,0,0,0,.809,4.993c.945,2.16,3.914,12.956,1.89,13.766l6.066.82s-.945-3.509,0-4.993-2.16-10.527-2.16-10.527-.27-7.557,2.294-9.313S904.97,458.857,904.97,458.857Z" transform="translate(-764.973 -383.577)" fill="#555388"/>
    <path id="Path_284" data-name="Path 284" d="M905.881,658.112s-1.666,1.946-2.794,2.216-.813,2,1.692,2.29,2.806.266,4.569-1.2,1.841-2.021,1.841-2.021-.348-1.305-.769-1.333S905.881,658.112,905.881,658.112Z" transform="translate(-764.861 -548.722)" fill="#603556"/>
    <path id="Path_285" data-name="Path 285" d="M905.384,459.262l-1.01-1.152a7.22,7.22,0,0,0-.854,3.754l-.9,12.85a13,13,0,0,0,.809,4.994c.945,2.16,3.914,12.956,1.89,13.766l6.064.82s-.945-3.509,0-4.994-2.16-10.527-2.16-10.527-.27-7.557,2.294-9.313S905.384,459.262,905.384,459.262Z" transform="translate(-764.982 -383.577)" opacity="0.1"/>
    <path id="Path_286" data-name="Path 286" d="M341.464,281.191s-1.687-33.106-8.61-44.823c0,0-5.077-9.273-9.32-11.978V223.32c-6.924-4.793-15.444,0-15.444,0v.473l-1.775,1.479-7.994-.028a3.852,3.852,0,0,0-2.968-1.392H258.875a3.85,3.85,0,0,0-2.837,1.243h-8.3a5.306,5.306,0,0,0-1.775-1.142v-.634c-6.924-4.793-15.444,0-15.444,0v1.286a2.281,2.281,0,0,0-.533.489s-7.013,4.7-8.61,10.561c0,0-8.61,25.829-8.788,46.066s7.634,23.077,11.715,23.61,11.36-.174,18.462-18.1l3.018-10.473s.533-6.214,6.924-2.308,12.07-2.13,12.07-2.13h23.967s7.98,4.964,15.266,1.051c0,0,2.841-3.728,5.5,8.877,0,0,8.167,25.918,20.77,23.255S341.464,281.191,341.464,281.191Z" transform="translate(-195.054 -187.893)" fill="url(#linear-gradient-2)"/>
    <path id="Path_287" data-name="Path 287" d="M320.84,229.933v-1.915s8.354-4.7,15.142,0v1.74Z" transform="translate(-284.468 -191.808)" fill="#535461"/>
    <path id="Path_288" data-name="Path 288" d="M757.84,229.933v-1.915s8.355-4.7,15.142,0v1.74Z" transform="translate(-645.408 -191.808)" fill="#535461"/>
    <path id="Path_289" data-name="Path 289" d="M320.84,229.933v-1.915s8.354-4.7,15.142,0v1.74Z" transform="translate(-284.468 -191.808)" opacity="0.1"/>
    <path id="Path_290" data-name="Path 290" d="M757.84,229.933v-1.915s8.355-4.7,15.142,0v1.74Z" transform="translate(-645.408 -191.808)" opacity="0.1"/>
    <path id="Path_291" data-name="Path 291" d="M262.469,237.15h-8.18s-2.089-2.437-9.051-2.263-8.354,2.263-8.354,2.263-6.875,4.612-8.441,10.356c0,0-8.441,25.324-8.616,45.166s7.484,22.627,11.487,23.149,11.139-.174,18.1-17.753l2.959-10.269s.522-6.092,6.788-2.263S271,283.448,271,283.448h23.5s7.832,4.873,14.968,1.044c0,0,2.785-3.655,5.4,8.7,0,0,8.006,25.411,20.364,22.8s10.965-23.845,10.965-23.845-1.653-32.461-8.441-43.948c0,0-6.527-11.923-10.878-12.445,0,0-9.4-1.741-13.054-.174l-2.089,1.741Z" transform="translate(-201.034 -199.2)" fill="#535461"/>
    <circle id="Ellipse_88" data-name="Ellipse 88" cx="15.142" cy="15.142" r="15.142" transform="translate(27.321 39.865)" fill="#e2e2ec"/>
    <circle id="Ellipse_89" data-name="Ellipse 89" cx="15.142" cy="15.142" r="15.142" transform="translate(106.34 39.865)" fill="#e2e2ec"/>
    <path id="Path_292" data-name="Path 292" d="M344.446,295.474l-2.019,1.786a.936.936,0,0,1-1.237,0l-2.022-1.786a.935.935,0,0,1-.317-.7v-4.913a.936.936,0,0,1,.936-.935h4.047a.935.935,0,0,1,.936.936v4.908A.935.935,0,0,1,344.446,295.474Z" transform="translate(-299.344 -243.843)" fill="#535461"/>
    <path id="Path_293" data-name="Path 293" d="M344.446,355.746l-2.019-1.784a.936.936,0,0,0-1.237,0l-2.022,1.786a.935.935,0,0,0-.317.7v4.908a.935.935,0,0,0,.936.936h4.047a.935.935,0,0,0,.936-.935v-4.908A.935.935,0,0,0,344.446,355.746Z" transform="translate(-299.344 -297.363)" fill="#535461"/>
    <path id="Path_294" data-name="Path 294" d="M305.419,334.539l1.786-2.022a.936.936,0,0,0,0-1.237l-1.786-2.022a.936.936,0,0,0-.7-.317h-4.908a.936.936,0,0,0-.935.936v4.047a.935.935,0,0,0,.936.936h4.908A.935.935,0,0,0,305.419,334.539Z" transform="translate(-266.331 -276.889)" fill="#535461"/>
    <path id="Path_295" data-name="Path 295" d="M365.671,334.531l-1.782-2.024a.935.935,0,0,1,0-1.238l1.786-2.022a.935.935,0,0,1,.7-.317h4.908a.935.935,0,0,1,.936.936v4.047a.935.935,0,0,1-.935.936h-4.908A.935.935,0,0,1,365.671,334.531Z" transform="translate(-319.831 -276.881)" fill="#535461"/>
    <path id="Path_296" data-name="Path 296" d="M229.18,241.343H234.4l-2.611-2.263Z" transform="translate(-189.327 -197.474)" fill="none" stroke="#535461" stroke-miterlimit="10" stroke-width="2"/>
    <path id="Path_297" data-name="Path 297" d="M229.18,380.08H234.4l-2.611,2.263Z" transform="translate(-189.327 -313.933)" fill="none" stroke="#535461" stroke-miterlimit="10" stroke-width="2"/>
    <path id="Path_298" data-name="Path 298" d="M169.443,301.08V306.3l-2.263-2.611Z" transform="translate(-138.119 -248.683)" fill="none" stroke="#535461" stroke-miterlimit="10" stroke-width="2"/>
    <path id="Path_299" data-name="Path 299" d="M308.18,301.08V306.3l2.263-2.611Z" transform="translate(-254.577 -248.683)" fill="none" stroke="#535461" stroke-miterlimit="10" stroke-width="2"/>
    <circle id="Ellipse_90" data-name="Ellipse 90" cx="10.965" cy="10.965" r="10.965" transform="translate(52.036 60.577)" fill="#e2e2ec"/>
    <circle id="Ellipse_91" data-name="Ellipse 91" cx="7.31" cy="7.31" r="7.31" transform="translate(55.343 62.492)" fill="#535461"/>
    <circle id="Ellipse_92" data-name="Ellipse 92" cx="10.965" cy="10.965" r="10.965" transform="translate(89.979 60.577)" fill="#e2e2ec"/>
    <circle id="Ellipse_93" data-name="Ellipse 93" cx="7.31" cy="7.31" r="7.31" transform="translate(93.286 62.492)" fill="#535461"/>
    <circle id="Ellipse_94" data-name="Ellipse 94" cx="4.873" cy="4.873" r="4.873" transform="translate(57.78 64.929)" fill="none" stroke="#000" stroke-miterlimit="10" stroke-width="2" opacity="0.1"/>
    <circle id="Ellipse_95" data-name="Ellipse 95" cx="4.873" cy="4.873" r="4.873" transform="translate(95.723 64.929)" fill="none" stroke="#000" stroke-miterlimit="10" stroke-width="2" opacity="0.1"/>
    <circle id="Ellipse_96" data-name="Ellipse 96" cx="3.133" cy="3.133" r="3.133" transform="translate(79.188 69.628)" fill="#e2e2ec"/>
    <circle id="Ellipse_97" data-name="Ellipse 97" cx="0.684" cy="0.684" r="0.684" transform="translate(76.849 61.62)" fill="#e2e2ec"/>
    <circle id="Ellipse_98" data-name="Ellipse 98" cx="0.684" cy="0.684" r="0.684" transform="translate(79.411 61.62)" fill="#e2e2ec"/>
    <circle id="Ellipse_99" data-name="Ellipse 99" cx="0.684" cy="0.684" r="0.684" transform="translate(79.07 64.866)" fill="#e2e2ec"/>
    <circle id="Ellipse_100" data-name="Ellipse 100" cx="0.696" cy="0.696" r="0.696" transform="translate(81.451 64.929)" fill="#e2e2ec"/>
    <circle id="Ellipse_101" data-name="Ellipse 101" cx="0.684" cy="0.684" r="0.684" transform="translate(83.853 64.866)" fill="#e2e2ec"/>
    <circle id="Ellipse_102" data-name="Ellipse 102" cx="0.684" cy="0.684" r="0.684" transform="translate(78.045 63.329)" fill="#e2e2ec"/>
    <circle id="Ellipse_103" data-name="Ellipse 103" cx="0.696" cy="0.696" r="0.696" transform="translate(80.232 63.362)" fill="#e2e2ec"/>
    <circle id="Ellipse_104" data-name="Ellipse 104" cx="0.696" cy="0.696" r="0.696" transform="translate(82.495 63.362)" fill="#e2e2ec"/>
    <circle id="Ellipse_105" data-name="Ellipse 105" cx="0.684" cy="0.684" r="0.684" transform="translate(84.878 63.329)" fill="#e2e2ec"/>
    <circle id="Ellipse_106" data-name="Ellipse 106" cx="0.696" cy="0.696" r="0.696" transform="translate(81.451 61.622)" fill="#e2e2ec"/>
    <circle id="Ellipse_107" data-name="Ellipse 107" cx="0.696" cy="0.696" r="0.696" transform="translate(83.888 61.622)" fill="#e2e2ec"/>
    <circle id="Ellipse_108" data-name="Ellipse 108" cx="0.684" cy="0.684" r="0.684" transform="translate(85.903 61.62)" fill="#e2e2ec"/>
    <rect id="Rectangle_96" data-name="Rectangle 96" width="3.829" height="6.614" rx="1.915" transform="translate(54.821 39.169)" fill="#e2e2ec"/>
    <rect id="Rectangle_97" data-name="Rectangle 97" width="3.829" height="6.614" rx="1.915" transform="translate(105.644 39.169)" fill="#e2e2ec"/>
    <circle id="Ellipse_109" data-name="Ellipse 109" cx="4.177" cy="4.177" r="4.177" transform="translate(117.479 41.606)" fill="#535461"/>
    <circle id="Ellipse_110" data-name="Ellipse 110" cx="4.177" cy="4.177" r="4.177" transform="translate(108.603 50.482)" fill="#535461"/>
    <circle id="Ellipse_111" data-name="Ellipse 111" cx="4.177" cy="4.177" r="4.177" transform="translate(126.704 49.96)" fill="#535461"/>
    <circle id="Ellipse_112" data-name="Ellipse 112" cx="4.177" cy="4.177" r="4.177" transform="translate(118.176 59.185)" fill="#535461"/>
    <rect id="Rectangle_98" data-name="Rectangle 98" width="43.339" height="23.149" rx="11.574" transform="translate(60.391 36.732)" fill="#e2e2ec"/>
    <path id="Path_300" data-name="Path 300" d="M684.68,253.257l2.437-4.177,2.611,4.177Z" transform="translate(-565.547 -205.734)" fill="none" stroke="#e2e2ec" stroke-miterlimit="10" stroke-width="2"/>
    <rect id="Rectangle_99" data-name="Rectangle 99" width="4.351" height="3.829" transform="translate(110.604 52.745)" fill="none" stroke="#e2e2ec" stroke-miterlimit="10" stroke-width="2"/>
    <circle id="Ellipse_113" data-name="Ellipse 113" cx="2.437" cy="2.437" r="2.437" transform="translate(128.445 51.701)" fill="none" stroke="#e2e2ec" stroke-miterlimit="10" stroke-width="2"/>
    <line id="Line_7" data-name="Line 7" x2="3.916" y2="3.916" transform="translate(120.351 61.404)" fill="none" stroke="#e2e2ec" stroke-miterlimit="10" stroke-width="2"/>
    <line id="Line_8" data-name="Line 8" x1="4.003" y2="3.829" transform="translate(120.351 61.404)" fill="none" stroke="#e2e2ec" stroke-miterlimit="10" stroke-width="2"/>
    <path id="Path_301" data-name="Path 301" d="M401.819,672.627a2.97,2.97,0,0,0,1.17-1.439,1.218,1.218,0,0,0-.816-1.466,2.62,2.62,0,0,0-2.16.618,3.183,3.183,0,0,1-2.1.827,2.335,2.335,0,0,0,.989-2.437.945.945,0,0,0-.275-.5,1.561,1.561,0,0,0-1.669.078,4.641,4.641,0,0,0-2.036,4.249,6.617,6.617,0,0,1-.03-1.751,1.668,1.668,0,0,0-.806-1.549,2.881,2.881,0,0,0-1.229-.235,2.952,2.952,0,0,0-1.993.463,1.391,1.391,0,0,0,.078,2,7.676,7.676,0,0,0,2.063,1.349,4.3,4.3,0,0,1,1.474,1.147,1.047,1.047,0,0,1,.11.205h4.468A12.847,12.847,0,0,0,401.819,672.627Z" transform="translate(-341.983 -556.954)" fill="#6c63ff"/>
    <path id="Path_302" data-name="Path 302" d="M977.9,666.118s-.809,2.437-1.755,3.1,0,2.16,2.437,1.485,2.7-.809,3.779-2.834.945-2.564.945-2.564-.809-1.079-1.218-.945S977.9,666.118,977.9,666.118Z" transform="translate(-825.421 -553.924)" fill="#603556"/>
    <path id="Path_303" data-name="Path 303" d="M917.69,300.733s-10.932,6.073-8.368,4.318c1.723-1.178,1.619-4.306,1.365-6.233-.08-.6-.174-1.084-.231-1.356-.033-.153-.054-.238-.054-.238s5.3-3.182,5-1.269h0a.111.111,0,0,1-.009.052,2.067,2.067,0,0,0-.04.388C915.32,298.363,917.69,300.733,917.69,300.733Z" transform="translate(-770.203 -249.14)" fill="#c87486"/>
    <path id="Path_304" data-name="Path 304" d="M826.2,309.826s-.945,1.485-2.564,0-6.748-5.939-6.748-5.939-2.294-5.669-3.916-4.588,1.89,6.344,1.89,6.344l7.693,8.233s.27,1.754,3.1.809,4.86-1.754,4.86-1.754Z" transform="translate(-690.589 -252.295)" fill="#c87486"/>
    <path id="Path_305" data-name="Path 305" d="M915.83,439.53" transform="translate(-775.9 -368.231)" fill="none"/>
    <path id="Path_306" data-name="Path 306" d="M933,472.165l-5.4,1.89-.228.066.094-.472c.809-4.048-4.177-13.362-5.129-14.037s-1.758-4.593-1.758-4.593-1.768-8.908-2.038-10.791a3.916,3.916,0,0,0-.614-1.366,10.817,10.817,0,0,1-1.044-2.5c-.594-2.089-1.977-5.8-1.469-7.893.1-.426-.317.663-.174.247l.082-.23L926.257,431a8.165,8.165,0,0,1,.508.688c.827,1.227.773,1.227.947,3.559a24.073,24.073,0,0,1-.594,4.177c-1.471,6.55,1.847,15.316,1.847,15.316s2.7,6.208,2.16,8.772S933,472.165,933,472.165Z" transform="translate(-775.394 -361.186)" fill="#555388"/>
    <path id="Path_307" data-name="Path 307" d="M925.115,431.686c-1.617,2.028-11.975,3.6-11.846,2.959a1.367,1.367,0,0,0-.049-.665,13.179,13.179,0,0,1,.372-1.265l.082-.23L924.606,431a8.179,8.179,0,0,1,.508.686Z" transform="translate(-773.744 -361.186)" opacity="0.1"/>
    <path id="Path_308" data-name="Path 308" d="M917.892,310s-4.456,1.354-5.674,4.459.924,3.274.924,3.274-3.829,10.095-2.814,15.351a1.912,1.912,0,0,1,.406,1.349c-.134.674,11.2-1.079,12.01-3.239s-3.779-6.073-2.564-9.717S917.892,310,917.892,310Z" transform="translate(-771.214 -261.246)" fill="#dfe5ee"/>
    <path id="Path_309" data-name="Path 309" d="M922.613,297.568a.427.427,0,0,1-.04.117c-.184.348-.771-.033-.567.489-.783.787-1.03,2.362-2.226,2.362a4.292,4.292,0,0,1-1.878-.426c-.08-.6-.174-1.084-.231-1.356.522-.31,4.7-2.729,4.95-1.507h0A.8.8,0,0,1,922.613,297.568Z" transform="translate(-777.42 -250.429)" opacity="0.1"/>
    <circle id="Ellipse_114" data-name="Ellipse 114" cx="4.318" cy="4.318" r="4.318" transform="translate(138.04 41.202)" fill="#c87486"/>
    <path id="Path_310" data-name="Path 310" d="M897.826,343.658l-7.557,3.509s-5.129-3.913-4.32-4.99S893.1,338,893.1,338,899.581,339.34,897.826,343.658Z" transform="translate(-751.148 -284.372)" opacity="0.1"/>
    <path id="Path_311" data-name="Path 311" d="M897.833,342.132l-7.557,3.509s-5.129-3.914-4.318-4.994,7.154-4.177,7.154-4.177S899.587,337.807,897.833,342.132Z" transform="translate(-751.155 -283.109)" fill="#dfe5ee"/>
    <path id="Path_312" data-name="Path 312" d="M910.461,262.041a4.69,4.69,0,0,1-1.915-.472,1.154,1.154,0,0,1-.648-.893c-.012-.453.369-.806.719-1.093a2.623,2.623,0,0,1,.774-.5,4.736,4.736,0,0,1,1.178-.117c1.163-.1,2.2-.888,3.371-.881a5.031,5.031,0,0,1,2.393.862c.6.338,1.26.766,1.359,1.445a6.278,6.278,0,0,0,.054.654c.123.484.644.766.83,1.229a1.47,1.47,0,0,1-.43,1.488c-.376.4-.87.667-1.265,1.036a3.547,3.547,0,0,0-1.135,2.67.35.35,0,0,1-.03.193.338.338,0,0,1-.244.122c-.43.08-.961.124-1.218-.231s-.054-.947-.348-1.3c-.374-.451-1.161-.092-1.667-.388a1.013,1.013,0,0,1-.383-.458c-.418-.9.061-1.606.235-2.466C912.3,261.943,911.169,262.112,910.461,262.041Z" transform="translate(-769.349 -218.371)" opacity="0.1"/>
    <path id="Path_313" data-name="Path 313" d="M911.241,261.251a4.691,4.691,0,0,1-1.915-.472,1.154,1.154,0,0,1-.647-.893c-.012-.453.369-.806.719-1.093a2.624,2.624,0,0,1,.774-.5,4.737,4.737,0,0,1,1.178-.117c1.163-.1,2.2-.888,3.371-.881a5.031,5.031,0,0,1,2.393.862c.6.338,1.26.766,1.359,1.445a6.3,6.3,0,0,0,.054.654c.124.484.644.766.83,1.229a1.47,1.47,0,0,1-.43,1.488c-.376.4-.87.667-1.265,1.036a3.548,3.548,0,0,0-1.137,2.677.347.347,0,0,1-.03.193.337.337,0,0,1-.244.122c-.43.08-.961.124-1.218-.231s-.054-.947-.348-1.3c-.374-.451-1.161-.092-1.667-.388a1.013,1.013,0,0,1-.383-.458c-.421-.9.059-1.613.233-2.482C913.075,261.155,911.947,261.326,911.241,261.251Z" transform="translate(-769.993 -217.718)" fill="#603456"/>
  </g>
</svg>
