<svg xmlns="http://www.w3.org/2000/svg" width="154.442" height="138.141" viewBox="0 0 154.442 138.141">
  <g id="online_lessons" data-name="online lessons" transform="translate(0 -0.01)">
    <path id="Path_174" data-name="Path 174" d="M866.463,204.85c5.519,8.052,4.3,18.483,4.3,18.483s-10.169-2.624-15.688-10.676-4.3-18.483-4.3-18.483S860.944,196.8,866.463,204.85Z" transform="translate(-721.874 -177.933)" fill="#2f2e41"/>
    <path id="Path_175" data-name="Path 175" d="M907.768,183.8c.646,9.74,8.059,17.18,8.059,17.18s6.366-8.353,5.72-18.093-8.059-17.18-8.059-17.18S907.122,174.059,907.768,183.8Z" transform="translate(-767.15 -155.345)" fill="#6c63ff"/>
    <path id="Path_176" data-name="Path 176" d="M575.575,115.791,650.5,153.461a3.543,3.543,0,0,1,1.944,3.4l-4.353,64.483a1.755,1.755,0,0,1-2.543,1.448l-76.636-39.111,3.934-66.323a1.884,1.884,0,0,1,2.727-1.572Z" transform="translate(-498.319 -115.58)" fill="#d0cde1"/>
    <path id="Path_177" data-name="Path 177" d="M580.378,122.172l73.087,36.746a3.456,3.456,0,0,1,1.9,3.321l-4.246,62.9a1.712,1.712,0,0,1-2.481,1.413L573.88,188.4l3.838-64.694a1.838,1.838,0,0,1,2.66-1.533Z" transform="translate(-502.26 -120.647)" fill="#3f3d56"/>
    <path id="Path_178" data-name="Path 178" d="M598.222,145.872l66.251,33.309a3.133,3.133,0,0,1,1.719,3.01l-3.849,57.016a1.552,1.552,0,0,1-2.249,1.281l-67.762-34.582,3.479-58.643a1.666,1.666,0,0,1,2.412-1.39Z" transform="translate(-516.9 -139.466)" fill="#fff"/>
    <path id="Path_179" data-name="Path 179" d="M285.462,474.877l75.023,37.783a5,5,0,0,0,4.5-.006l55.5-28.174a2.329,2.329,0,0,0,.352-2.339,5.212,5.212,0,0,0-.41-1.011l-7.563-3.978-63.588-31.727-3.8-2.017a7.035,7.035,0,0,0-6.534-.026l-53.5,27.793a2.077,2.077,0,0,0,.023,3.7Z" transform="translate(-272.502 -375.041)" fill="#d0cde1"/>
    <path id="Path_180" data-name="Path 180" d="M285.458,590.5l75.023,37.783a5,5,0,0,0,4.5-.006l55.5-28.174a2.329,2.329,0,0,0,.352-2.339L365.5,626.523a4.827,4.827,0,0,1-4.379.038l-76.782-38.253A2.069,2.069,0,0,0,285.458,590.5Z" transform="translate(-272.498 -490.662)" opacity="0.1"/>
    <path id="Path_181" data-name="Path 181" d="M473.01,605.144l-24.3-12.278a3.414,3.414,0,0,0-3.148.036l-14.095,7.53a1.008,1.008,0,0,0,.021,1.789l24.773,12.492a2.806,2.806,0,0,0,2.641-.061l14.151-7.972a.868.868,0,0,0-.046-1.537Z" transform="translate(-388.841 -493.988)" opacity="0.1"/>
    <path id="Path_182" data-name="Path 182" d="M517.289,495.419l-26.145,13.89a2.127,2.127,0,0,1-1.957.02l-73.871-37.357a1.256,1.256,0,0,1,.01-2.247l25.532-12.637a2.769,2.769,0,0,1,2.474.009l73.947,37.258a.6.6,0,0,1,.012,1.064Z" transform="translate(-375.899 -386.316)" opacity="0.1"/>
    <rect id="Rectangle_32" data-name="Rectangle 32" width="0.293" height="26.875" transform="matrix(0.447, -0.894, 0.894, 0.447, 99.549, 40.095)" fill="#6c63ff"/>
    <rect id="Rectangle_33" data-name="Rectangle 33" width="0.293" height="27.007" transform="translate(99.544 43.618) rotate(-62.909)" fill="#6c63ff"/>
    <rect id="Rectangle_34" data-name="Rectangle 34" width="0.293" height="15.47" transform="matrix(0.455, -0.89, 0.89, 0.455, 103.947, 50.353)" fill="#6c63ff"/>
    <path id="Path_183" data-name="Path 183" d="M331.737,424.925s-5.862-2.554-8.615.144S330.494,426.879,331.737,424.925Z" transform="translate(-302.919 -360.157)" fill="#3f3d56"/>
    <path id="Path_184" data-name="Path 184" d="M313.282,357.046a7.652,7.652,0,0,1,5.867-3.484s3.8-.486,6.234,4.584c2.271,4.725,5.4,9.287.5,10.393L325,365.785l-.548,2.96a19.175,19.175,0,0,1-2.1.036c-5.247-.169-10.245.05-10.084-1.833C312.487,364.444,311.386,360.249,313.282,357.046Z" transform="translate(-294.585 -304.392)" fill="#2f2e41"/>
    <path id="Path_185" data-name="Path 185" d="M287.92,662.62s2.487,4.618,4.085,4.618,1.421,3.02,1.066,3.73a4.219,4.219,0,0,0,.178,4.618,2.834,2.834,0,0,1,.082,2.571,2.249,2.249,0,0,1-4.349-.887q0-.042,0-.085c.178-2.842-1.243-7.283-2.664-8.349s-2.664-3.908-2.664-3.908Z" transform="translate(-271.98 -549.626)" fill="#ffb8b8"/>
    <path id="Path_186" data-name="Path 186" d="M365.045,657.46s-2.487,4.618-4.085,4.618-1.421,3.02-1.066,3.73a4.219,4.219,0,0,1-.178,4.618,2.834,2.834,0,0,0-.082,2.571,2.249,2.249,0,0,0,4.349-.887q0-.042,0-.085c-.178-2.842,1.243-7.283,2.664-8.349s2.664-3.908,2.664-3.908Z" transform="translate(-332.053 -545.532)" fill="#ffb8b8"/>
    <path id="Path_187" data-name="Path 187" d="M258.159,539.872l1.066,2.309s15.631,5.151,14.21,11.191-8.348,15.454-9.414,15.1-6.75-1.421-6.927-4.441,4.085-8.349,4.085-8.349l-5.862-5.329-8.53-.178-7.279,5.506s7.638,6.75,4.263,9.414-8.349,4.441-9.059,3.375-8.7-16.875-7.46-18.3,13.855-6.75,13.855-6.75l3.375-4.8,13.144-.711Z" transform="translate(-227.121 -450.68)" fill="#2f2e41"/>
    <path id="Path_188" data-name="Path 188" d="M332.576,400.32s-.888,5.862.888,6.572-3.553,3.73-3.553,3.73h-3.02l-1.954-4.085s1.776-3.2.711-6.217S332.576,400.32,332.576,400.32Z" transform="translate(-304.735 -340.437)" fill="#ffb8b8"/>
    <path id="Path_189" data-name="Path 189" d="M332.576,400.32s-.888,5.862.888,6.572-3.553,3.73-3.553,3.73h-3.02l-1.954-4.085s1.776-3.2.711-6.217S332.576,400.32,332.576,400.32Z" transform="translate(-304.735 -340.437)" opacity="0.1"/>
    <path id="Path_190" data-name="Path 190" d="M324.265,429.557s-1.954,2.132-2.309,2.487-1.954,2.309-5.329-.533-3.73.533-3.73.533v21.315s2.842-1.243,5.151,0,7.105-.355,7.105-.355l.888-22.026Z" transform="translate(-295.181 -364.7)" fill="#d0cde1"/>
    <path id="Path_191" data-name="Path 191" d="M352.858,428.344a4.089,4.089,0,0,1,3.081,0c1.421.711,6.395,4.263,6.039,5.862S357,446.995,360.2,452.324a57.09,57.09,0,0,1,3.73,6.75l-7.816-4.085s-6.039-3.73-5.506-6.039S352.858,428.344,352.858,428.344Z" transform="translate(-325.078 -363.487)" fill="#3f3d56"/>
    <path id="Path_192" data-name="Path 192" d="M286.265,429.557s-3.728.355-3.906.711-5.6,1.865-5.24,3.464,5.24,15.9,3.108,18.562-5.684,6.395-4.441,6.75,3.375-.533,5.506,0,7.105-3.908,6.572-8.7S287.862,430.8,286.265,429.557Z" transform="translate(-265.532 -364.7)" fill="#3f3d56"/>
    <path id="Path_193" data-name="Path 193" d="M356.811,590.407v1.776s.888,4.085-1.954,3.908-1.066-4.974-1.066-4.974l.178-1.6Z" transform="translate(-327.194 -491.623)" fill="#ffb8b8"/>
    <path id="Path_194" data-name="Path 194" d="M318.853,594.679s1.954,4.085,0,4.441-3.375-2.309-3.375-3.02S318.853,594.679,318.853,594.679Z" transform="translate(-297.229 -495.717)" fill="#ffb8b8"/>
    <ellipse id="Ellipse_72" data-name="Ellipse 72" cx="0.355" cy="0.711" rx="0.355" ry="0.711" transform="translate(18.693 56.775)" fill="#ffb8b8"/>
    <ellipse id="Ellipse_73" data-name="Ellipse 73" cx="0.355" cy="0.711" rx="0.355" ry="0.711" transform="translate(29.173 56.775)" fill="#ffb8b8"/>
    <path id="Path_195" data-name="Path 195" d="M287.9,440.737s-4.441,0-4.263,1.776,6.039,32.328,6.039,32.328,2.487-2.309,4.618-1.776Z" transform="translate(-271.96 -373.571)" fill="#3f3d56"/>
    <path id="Path_196" data-name="Path 196" d="M360.423,443.317s4.441.888,4.441,3.553-6.395,28.243-7.283,28.243-4.263-.533-4.263-1.421S360.423,443.317,360.423,443.317Z" transform="translate(-327.253 -375.618)" fill="#3f3d56"/>
    <path id="Path_197" data-name="Path 197" d="M367.634,468.687l-4,15.63S365.5,470.641,367.634,468.687Z" transform="translate(-335.442 -395.748)" opacity="0.2"/>
    <path id="Path_198" data-name="Path 198" d="M307.723,458.054l4.042,20.435S310.473,459.233,307.723,458.054Z" transform="translate(-291.076 -387.311)" opacity="0.2"/>
    <circle id="Ellipse_74" data-name="Ellipse 74" cx="5.151" cy="5.151" r="5.151" transform="translate(19.137 52.423)" fill="#ffb8b8"/>
    <path id="Path_199" data-name="Path 199" d="M94.033,245.6l3.85-2.017,5.317.825,1.1,4.859-2.738-.105-.765-1.785v1.756l-1.264-.049-.733-2.842-.458,3.025-4.492-.091Z" transform="translate(-74.466 -193.263)" fill="#2f2e41"/>
    <path id="Path_200" data-name="Path 200" d="M366.123,96.212,364,101.262l17.921,9.407L387.959,93" transform="translate(-288.819 -73.784)" fill="#f2f2f2"/>
    <path id="Path_201" data-name="Path 201" d="M379.921,57.582l7.917-18.629L369.642,30,362,48.176Z" transform="translate(-287.232 -23.796)" fill="#6c63ff"/>
    <rect id="Rectangle_35" data-name="Rectangle 35" width="0.293" height="15.47" transform="matrix(0.455, -0.89, 0.89, 0.455, 81.847, 13.589)" fill="#fff"/>
    <rect id="Rectangle_36" data-name="Rectangle 36" width="0.293" height="15.47" transform="matrix(0.455, -0.89, 0.89, 0.455, 80.814, 16.067)" fill="#fff"/>
  </g>
</svg>
