<svg xmlns="http://www.w3.org/2000/svg" width="218.109" height="138.178" viewBox="0 0 218.109 138.178">
  <g id="practice_sessions" data-name="practice sessions" transform="translate(2.679 0)">
    <path id="Path_150" data-name="Path 150" d="M421.506,689.4H237.188a6.094,6.094,0,0,1-6.18-6h0a857.418,857.418,0,0,1,196.678,0h0A6.094,6.094,0,0,1,421.506,689.4Z" transform="translate(-216.085 -551.225)" fill="#ccc"/>
    <path id="Path_151" data-name="Path 151" d="M427.685,306.42l-196.677-.367,22.794-38.73.109-.184V181.782a7.851,7.851,0,0,1,7.813-7.889H395.88a7.851,7.851,0,0,1,7.813,7.89v85.944Z" transform="translate(-216.085 -173.893)" fill="#e6e6e6"/>
    <path id="Path_152" data-name="Path 152" d="M346.267,195.864a2.475,2.475,0,0,0-2.472,2.472v74.87a2.475,2.475,0,0,0,2.472,2.472H478a2.475,2.475,0,0,0,2.472-2.472v-74.87A2.475,2.475,0,0,0,478,195.864Z" transform="translate(-296.06 -190.567)" fill="#fff"/>
    <path id="Path_153" data-name="Path 153" d="M332.828,567.913a1.062,1.062,0,0,0-.963.617l-6.823,14.833a1.059,1.059,0,0,0,.962,1.5H469.489a1.059,1.059,0,0,0,.947-1.533L463.02,568.5a1.054,1.054,0,0,0-.947-.586Z" transform="translate(-281.755 -468.795)" fill="#ccc"/>
    <circle id="Ellipse_38" data-name="Ellipse 38" cx="1.589" cy="1.589" r="1.589" transform="translate(111.314 0.883)" fill="#fff"/>
    <path id="Path_154" data-name="Path 154" d="M557.812,649.94a1.061,1.061,0,0,0-1.023.784l-1.712,6.357a1.059,1.059,0,0,0,1.023,1.335h32.549a1.059,1.059,0,0,0,1-1.406l-2.2-6.357a1.06,1.06,0,0,0-1-.713Z" transform="translate(-458.968 -530.126)" fill="#ccc"/>
    <path id="Path_155" data-name="Path 155" d="M307.778,366.922v1.413H162.169l.109-.177v-1.236Z" transform="translate(-119.485 -275.073)" fill="#ccc"/>
    <path id="Path_156" data-name="Path 156" d="M850.1,554.237a.258.258,0,0,0-.249.191l-.417,1.548a.258.258,0,0,0,.249.325h7.926a.258.258,0,0,0,.244-.342l-.536-1.548a.258.258,0,0,0-.244-.174Z" transform="translate(-680.811 -459.011)" fill="#ccc"/>
    <path id="Path_157" data-name="Path 157" d="M802.1,554.237a.258.258,0,0,0-.249.191l-.417,1.548a.258.258,0,0,0,.249.325h7.926a.258.258,0,0,0,.244-.342l-.536-1.548a.258.258,0,0,0-.244-.174Z" transform="translate(-644.703 -459.011)" fill="#ccc"/>
    <path id="Path_158" data-name="Path 158" d="M611.717,333.678h.621L611.1,250.644h-.621l.025,1.657H596.576l.025-1.657h-.621l-1.242,83.034h.621l.081-5.384h16.2Zm-.9-59.842H596.254l.152-10.146H610.67Zm.009.621.152,10.146h-14.89l.152-10.146Zm.161,10.767.152,10.146H595.932l.152-10.146Zm.161,10.767.152,10.146H595.771l.152-10.146Zm.161,10.767.152,10.146H595.61l.152-10.146Zm-.805-53.837.152,10.146H596.415l.152-10.146Zm-15.06,74.751.152-10.146h15.875l.152,10.146Z" transform="translate(-489.082 -232.139)" fill="#3f3d56"/>
    <circle id="Ellipse_39" data-name="Ellipse 39" cx="10.129" cy="10.129" r="10.129" transform="translate(101.163 28.043)" fill="#2f2e41"/>
    <rect id="Rectangle_23" data-name="Rectangle 23" width="3.077" height="5.513" transform="translate(114.345 46.266) rotate(-10.261)" fill="#2f2e41"/>
    <rect id="Rectangle_24" data-name="Rectangle 24" width="3.077" height="5.513" transform="translate(108.125 47.406) rotate(-10.261)" fill="#2f2e41"/>
    <ellipse id="Ellipse_40" data-name="Ellipse 40" cx="2.564" cy="0.962" rx="2.564" ry="0.962" transform="matrix(0.763, -0.646, 0.646, 0.763, 107.514, 54.302)" fill="#2f2e41"/>
    <ellipse id="Ellipse_41" data-name="Ellipse 41" cx="2.564" cy="0.962" rx="2.564" ry="0.962" transform="matrix(0.763, -0.646, 0.646, 0.763, 113.605, 53.186)" fill="#2f2e41"/>
    <circle id="Ellipse_42" data-name="Ellipse 42" cx="3.462" cy="3.462" r="3.462" transform="translate(107.093 32.274)" fill="#fff"/>
    <circle id="Ellipse_43" data-name="Ellipse 43" cx="1.154" cy="1.154" r="1.154" transform="translate(107.937 33.338)" fill="#3f3d56"/>
    <path id="Path_159" data-name="Path 159" d="M604.418,259.193c.152-3.75-3.08-6.926-7.219-7.094s-7.618,2.736-7.771,6.486,2.725,4.6,6.864,4.77S604.265,262.943,604.418,259.193Z" transform="translate(-485.125 -233.237)" fill="#6c63ff"/>
    <ellipse id="Ellipse_44" data-name="Ellipse 44" cx="1.59" cy="5.065" rx="1.59" ry="5.065" transform="matrix(0.223, -0.975, 0.975, 0.223, 96.38, 36.827)" fill="#2f2e41"/>
    <ellipse id="Ellipse_45" data-name="Ellipse 45" cx="1.59" cy="5.065" rx="1.59" ry="5.065" transform="matrix(0.223, -0.975, 0.975, 0.223, 116.817, 40.264)" fill="#2f2e41"/>
    <path id="Path_160" data-name="Path 160" d="M615.612,340.019a2.308,2.308,0,0,1-4.541.827v0c-.227-1.254.743-1.7,2-1.925S615.385,338.765,615.612,340.019Z" transform="translate(-501.535 -297.503)" fill="#fff"/>
    <ellipse id="Ellipse_46" data-name="Ellipse 46" cx="5.192" cy="1.63" rx="5.192" ry="1.63" transform="matrix(0.357, -0.934, 0.934, 0.357, 71.098, 77.757)" fill="#2f2e41"/>
    <circle id="Ellipse_47" data-name="Ellipse 47" cx="10.384" cy="10.384" r="10.384" transform="translate(52.601 90.297) rotate(-80.783)" fill="#2f2e41"/>
    <rect id="Rectangle_25" data-name="Rectangle 25" width="3.155" height="5.652" transform="translate(59.817 90.215)" fill="#2f2e41"/>
    <rect id="Rectangle_26" data-name="Rectangle 26" width="3.155" height="5.652" transform="translate(66.296 90.215)" fill="#2f2e41"/>
    <ellipse id="Ellipse_48" data-name="Ellipse 48" cx="2.629" cy="0.986" rx="2.629" ry="0.986" transform="translate(59.834 95.033)" fill="#2f2e41"/>
    <ellipse id="Ellipse_49" data-name="Ellipse 49" cx="2.629" cy="0.986" rx="2.629" ry="0.986" transform="translate(66.314 94.896)" fill="#2f2e41"/>
    <path id="Path_161" data-name="Path 161" d="M387.8,432.677c-.838-3.755,1.842-7.549,5.986-8.475s8.184,1.368,9.023,5.123-1.908,5.14-6.053,6.065S388.637,436.432,387.8,432.677Z" transform="translate(-333.378 -361.191)" fill="#6c63ff"/>
    <ellipse id="Ellipse_50" data-name="Ellipse 50" cx="1.63" cy="5.192" rx="1.63" ry="5.192" transform="translate(47.182 75.876) rotate(-64.626)" fill="#2f2e41"/>
    <circle id="Ellipse_51" data-name="Ellipse 51" cx="10.384" cy="10.384" r="10.384" transform="translate(7.571 82.298)" fill="#2f2e41"/>
    <rect id="Rectangle_27" data-name="Rectangle 27" width="3.155" height="5.652" transform="translate(13.223 101.145)" fill="#2f2e41"/>
    <rect id="Rectangle_28" data-name="Rectangle 28" width="3.155" height="5.652" transform="translate(19.532 101.145)" fill="#2f2e41"/>
    <ellipse id="Ellipse_52" data-name="Ellipse 52" cx="2.629" cy="0.986" rx="2.629" ry="0.986" transform="translate(13.223 105.95)" fill="#2f2e41"/>
    <ellipse id="Ellipse_53" data-name="Ellipse 53" cx="2.629" cy="0.986" rx="2.629" ry="0.986" transform="translate(19.532 105.814)" fill="#2f2e41"/>
    <circle id="Ellipse_54" data-name="Ellipse 54" cx="3.549" cy="3.549" r="3.549" transform="translate(14.669 86.289)" fill="#fff"/>
    <circle id="Ellipse_55" data-name="Ellipse 55" cx="1.183" cy="1.183" r="1.183" transform="translate(17.035 88.626)" fill="#3f3d56"/>
    <path id="Path_162" data-name="Path 162" d="M201.321,476.284c-.838-3.755,1.842-7.549,5.986-8.475s8.184,1.368,9.023,5.123-1.908,5.14-6.053,6.065S202.159,480.039,201.321,476.284Z" transform="translate(-193.439 -393.847)" fill="#e6e6e6"/>
    <ellipse id="Ellipse_56" data-name="Ellipse 56" cx="5.192" cy="1.63" rx="5.192" ry="1.63" transform="matrix(0.357, -0.934, 0.934, 0.357, 20.627, 57.638)" fill="#2f2e41"/>
    <circle id="Ellipse_57" data-name="Ellipse 57" cx="10.384" cy="10.384" r="10.384" transform="translate(2.493 70.085) rotate(-80.783)" fill="#2f2e41"/>
    <rect id="Rectangle_29" data-name="Rectangle 29" width="3.155" height="5.652" transform="translate(9.674 70.129)" fill="#2f2e41"/>
    <rect id="Rectangle_30" data-name="Rectangle 30" width="3.155" height="5.652" transform="translate(15.983 70.129)" fill="#2f2e41"/>
    <ellipse id="Ellipse_58" data-name="Ellipse 58" cx="2.629" cy="0.986" rx="2.629" ry="0.986" transform="translate(9.674 74.968)" fill="#2f2e41"/>
    <ellipse id="Ellipse_59" data-name="Ellipse 59" cx="2.629" cy="0.986" rx="2.629" ry="0.986" transform="translate(15.983 74.831)" fill="#2f2e41"/>
    <circle id="Ellipse_60" data-name="Ellipse 60" cx="3.549" cy="3.549" r="3.549" transform="translate(11.12 55.26)" fill="#fff"/>
    <circle id="Ellipse_61" data-name="Ellipse 61" cx="1.183" cy="1.183" r="1.183" transform="translate(13.486 57.64)" fill="#3f3d56"/>
    <path id="Path_163" data-name="Path 163" d="M186.6,352.534c-.838-3.755,1.842-7.549,5.986-8.475s8.184,1.368,9.023,5.123-1.908,5.14-6.053,6.065S187.44,356.289,186.6,352.534Z" transform="translate(-182.268 -301.173)" fill="#6c63ff"/>
    <ellipse id="Ellipse_62" data-name="Ellipse 62" cx="1.63" cy="5.192" rx="1.63" ry="5.192" transform="translate(-2.679 55.779) rotate(-64.626)" fill="#2f2e41"/>
    <path id="Path_164" data-name="Path 164" d="M207.707,431.476c0,1.016,2.617,3.023,5.52,3.023s5.626-2.861,5.626-3.878-2.723.2-5.626.2S207.707,430.46,207.707,431.476Z" transform="translate(-198.402 -366)" fill="#fff"/>
    <path id="Path_165" data-name="Path 165" d="M268.927,255.461a.724.724,0,0,0-.723.723v29.9a.724.724,0,0,0,.723.723h69.2a.724.724,0,0,0,.723-.723v-29.9a.724.724,0,0,0-.723-.723Z" transform="translate(-244.312 -235.795)" fill="#6c63ff"/>
    <circle id="Ellipse_63" data-name="Ellipse 63" cx="7.021" cy="7.021" r="7.021" transform="translate(37.381 29.514)" fill="#fff"/>
    <path id="Path_40" data-name="Path 40" d="M411.839,316.587a.821.821,0,1,0,0,1.642h22.169a.821.821,0,0,0,.027-1.642h-22.2Z" transform="translate(-350.877 -280.865)" fill="#fff"/>
    <path id="Path_40-2" data-name="Path 40" d="M411.839,296.86a.821.821,0,1,0,0,1.642h11.071a.821.821,0,1,0,.027-1.642h-11.1Z" transform="translate(-350.977 -266.076)" fill="#fff"/>
    <path id="Path_40-3" data-name="Path 40" d="M411.839,337.253a.821.821,0,1,0,0,1.642h22.169a.821.821,0,0,0,.027-1.642h-22.2Z" transform="translate(-350.877 -296.357)" fill="#fff"/>
    <ellipse id="Ellipse_64" data-name="Ellipse 64" cx="1.63" cy="5.192" rx="1.63" ry="5.192" transform="matrix(0.934, -0.357, 0.357, 0.934, 166.066, 89.046)" fill="#2f2e41"/>
    <circle id="Ellipse_65" data-name="Ellipse 65" cx="10.384" cy="10.384" r="10.384" transform="translate(166.09 95.315) rotate(-9.217)" fill="#2f2e41"/>
    <path id="Path_166" data-name="Path 166" d="M733.106,447.932h-3.154l.617,6.769,2.543-.691Z" transform="translate(-550.372 -334.897)" fill="#2f2e41"/>
    <path id="Path_167" data-name="Path 167" d="M704.583,448.005h-3.155l.617,6.769,2.428-.708Z" transform="translate(-529.787 -334.953)" fill="#2f2e41"/>
    <ellipse id="Ellipse_66" data-name="Ellipse 66" cx="2.629" cy="0.986" rx="2.629" ry="0.986" transform="translate(169.392 118.364) rotate(-4.182)" fill="#2f2e41"/>
    <circle id="Ellipse_67" data-name="Ellipse 67" cx="3.549" cy="3.549" r="3.549" transform="translate(174.191 97.414)" fill="#fff"/>
    <circle id="Ellipse_68" data-name="Ellipse 68" cx="1.183" cy="1.183" r="1.183" transform="translate(176.557 99.736)" fill="#3f3d56"/>
    <ellipse id="Ellipse_69" data-name="Ellipse 69" cx="5.192" cy="1.63" rx="5.192" ry="1.63" transform="translate(184.578 99.414) rotate(-53.55)" fill="#2f2e41"/>
    <path id="Path_168" data-name="Path 168" d="M863.077,602.389c0-.838,2.157-2.492,4.55-2.492s4.637,2.358,4.637,3.2-2.244-.163-4.637-.163S863.077,603.226,863.077,602.389Z" transform="translate(-690.141 -493.194)" fill="#fff"/>
    <path id="Path_169" data-name="Path 169" d="M821.369,371.979l-56.84-7.88a1.69,1.69,0,0,1-1.44-1.9l6.39-46.093a1.69,1.69,0,0,1,1.9-1.44l56.84,7.88a1.69,1.69,0,0,1,1.44,1.9l-6.39,46.093A1.69,1.69,0,0,1,821.369,371.979Z" transform="translate(-614.248 -278.456)" fill="#6c63ff"/>
    <path id="Path_170" data-name="Path 170" d="M828.728,410l-29.018-4.023a.6.6,0,0,1-.107-.024l17.02-21.87a.97.97,0,0,1,1.673.232l7,17.23.336.825Z" transform="translate(-641.971 -330.733)" fill="#fff"/>
    <path id="Path_171" data-name="Path 171" d="M728.538,292.269,718.63,290.9l5.843-6.39.421-.46.21-.23.335.825Z" transform="translate(-541.78 -212.622)" opacity="0.2"/>
    <path id="Path_172" data-name="Path 172" d="M908.416,442.213l-25.1-3.479,5.843-6.39.421-.46,7.614-8.328a1.295,1.295,0,0,1,1.919.15,1.18,1.18,0,0,1,.076.126Z" transform="translate(-705.501 -360.438)" fill="#fff"/>
    <circle id="Ellipse_70" data-name="Ellipse 70" cx="4.34" cy="4.34" r="4.34" transform="translate(182.771 51.723)" fill="#fff"/>
    <rect id="Rectangle_31" data-name="Rectangle 31" width="5.304" height="5.304" transform="translate(156.687 38.981) rotate(7.893)" fill="#3f3d56"/>
    <path id="Path_173" data-name="Path 173" d="M878.15,520.653c.838-3.755-1.842-7.549-5.986-8.475s-8.184,1.368-9.023,5.123,1.908,5.14,6.053,6.065S877.312,524.408,878.15,520.653Z" transform="translate(-690.075 -427.074)" fill="#f2f2f2"/>
    <ellipse id="Ellipse_71" data-name="Ellipse 71" cx="2.629" cy="0.986" rx="2.629" ry="0.986" transform="translate(177.383 118.348) rotate(-4.182)" fill="#2f2e41"/>
  </g>
</svg>
