<svg xmlns="http://www.w3.org/2000/svg" width="232" height="120.213" viewBox="0 0 232 120.213">
  <g id="undraw_static_website_0107" transform="translate(0 0)">
    <rect id="Rectangle_38" data-name="Rectangle 38" width="68.642" height="121.683" transform="translate(82.584 67.455) rotate(-74.21)" fill="#d0cde1"/>
    <circle id="Ellipse_75" data-name="Ellipse 75" cx="0.97" cy="0.97" r="0.97" transform="translate(102.315 3.197)" fill="#3f3d56"/>
    <circle id="Ellipse_76" data-name="Ellipse 76" cx="0.97" cy="0.97" r="0.97" transform="translate(105.302 4.041)" fill="#3f3d56"/>
    <circle id="Ellipse_77" data-name="Ellipse 77" cx="0.97" cy="0.97" r="0.97" transform="translate(108.288 4.885)" fill="#3f3d56"/>
    <path id="Path_203" data-name="Path 203" d="M749.572,354.656a11.329,11.329,0,0,0-4.732.112,11.308,11.308,0,0,0,.334-4.781,11.243,11.243,0,0,0-4.229,2.729,11.243,11.243,0,0,0-2.174-4.54,11.311,11.311,0,0,0-2.219,4.248,11.329,11.329,0,0,0-3.973-2.573,9.078,9.078,0,0,0,6.036,10.628l.015.017.008-.009.1.036s.013-.069.032-.192l.035-.043.007.055c-.049.115-.074.18-.074.18l.1.021,0,.012.022-.007a9.078,9.078,0,0,0,10.708-5.893Z" transform="translate(-586.167 -311.34)" fill="#3f3d56"/>
    <circle id="Ellipse_78" data-name="Ellipse 78" cx="2.521" cy="2.521" r="2.521" transform="translate(155.08 29.098)" fill="#3f3d56"/>
    <rect id="Rectangle_39" data-name="Rectangle 39" width="78.744" height="1.713" transform="translate(113.488 42.928) rotate(15.79)" fill="#3f3d56"/>
    <rect id="Rectangle_40" data-name="Rectangle 40" width="13.577" height="13.577" transform="translate(118.258 53.146) rotate(15.79)" fill="#3f3d56"/>
    <rect id="Rectangle_41" data-name="Rectangle 41" width="13.577" height="13.577" transform="translate(142.521 60.007) rotate(15.79)" fill="#3f3d56"/>
    <rect id="Rectangle_42" data-name="Rectangle 42" width="13.577" height="13.577" transform="translate(166.783 66.868) rotate(15.79)" fill="#3f3d56"/>
    <rect id="Rectangle_43" data-name="Rectangle 43" width="10.085" height="1.164" transform="translate(115.505 69.298) rotate(15.79)" fill="#3f3d56"/>
    <rect id="Rectangle_44" data-name="Rectangle 44" width="10.085" height="1.164" transform="translate(139.767 76.159) rotate(15.79)" fill="#3f3d56"/>
    <rect id="Rectangle_45" data-name="Rectangle 45" width="10.085" height="1.164" transform="translate(164.029 83.02) rotate(15.79)" fill="#3f3d56"/>
    <ellipse id="Ellipse_79" data-name="Ellipse 79" cx="64.906" cy="2.4" rx="64.906" ry="2.4" transform="translate(1.28 88.218)" fill="#d0cde1"/>
    <ellipse id="Ellipse_80" data-name="Ellipse 80" cx="50.508" cy="2.4" rx="50.508" ry="2.4" transform="translate(130.984 115.414)" fill="#d0cde1"/>
    <path id="Path_204" data-name="Path 204" d="M778.172,621h14.571v6.094h-8.478v6.094h8.478v6.093H778.172Zm17.486,0H810.23v5.3h-8.478v1.06h8.478v12.188H795.659v-5.565h8.478v-1.06h-8.479V621Zm17.486,0h14.572v5.3h-8.478v1.06h8.478v12.188H813.145v-5.565h8.478v-1.06h-8.478V621Z" transform="translate(-621.452 -521.812)" fill="#3f3d56"/>
    <path id="Path_205" data-name="Path 205" d="M220.926,499h6.011v5.939h5.5V499h6.012v17.985h-6.011v-6.022h-5.5v6.022h-6.011V499Zm25.426,5.964h-5.291V499h16.6v5.964h-5.294v12.021h-6.011V504.964h0ZM260.293,499h6.268l3.856,6.319L274.269,499h6.27v17.985h-5.987V508.07l-4.136,6.395h-.1l-4.138-6.395v8.914h-5.882Zm23.237,0h6.013v12.04H298v5.945H283.53V499Z" transform="translate(-191.56 -427.694)" fill="#3f3d56"/>
    <path id="Path_206" data-name="Path 206" d="M80.369,366.091l-.493,5.592,3.947-.329v-4.769Z" transform="translate(-61.621 -282.423)" fill="#ffb8b8"/>
    <path id="Path_207" data-name="Path 207" d="M54.546,366.091l.493,5.592-3.947-.329v-4.769Z" transform="translate(-39.415 -282.423)" fill="#ffb8b8"/>
    <path id="Path_208" data-name="Path 208" d="M142.121,365.276s1.316,7.894,1.316,9.045-.493,8.552-1.316,10.032-.987,2.138-.658,2.8.164.493,0,.987-.493.329,0,.987a1.728,1.728,0,0,1,0,1.974c-.329.493.658,13.815-.658,14.8s-1.645,4.276-1.645,4.276l-4.276-.493v-3.618s-.987-2.631-.329-4.276.987-10.361.987-10.361a3.267,3.267,0,0,1,0-1.316.732.732,0,0,0-.329-.987c-.329-.164-.493-.822-.493-.822l-.493-12.006-1.974,11.841s1.974,16.117,0,18.255v3.783h-4.276l.658-4.112s-1.316-3.783-.658-4.6-1.974-13.979-1.645-14.472.164-.658,0-.987-.658-.658-.493-.987a1.885,1.885,0,0,0,0-.987s-3.125-15.459-1.645-16.939S142.121,365.276,142.121,365.276Z" transform="translate(-116.629 -324.532)" fill="#2f2e41"/>
    <path id="Path_209" data-name="Path 209" d="M168.716,564.326s.329-1.577,2.96-1.035a7.088,7.088,0,0,1,.658,2.022c0,.658.658,5.1.658,5.1s2.631,4.44-.658,4.44-4.44-1.151-4.6-2.3.164-1.48-.493-1.974-.987-.493-.822-1.151.493-3.947.493-3.947.164-2.467,1.069-1.809l.9.658" transform="translate(-149.474 -477.204)" fill="#2f2e41"/>
    <path id="Path_210" data-name="Path 210" d="M138.684,564.326s-.329-1.577-2.96-1.035a7.088,7.088,0,0,0-.658,2.022c0,.658-.658,5.1-.658,5.1s-2.631,4.44.658,4.44,4.44-1.151,4.6-2.3-.164-1.48.493-1.974.987-.493.822-1.151-.493-3.947-.493-3.947-.164-2.467-1.069-1.809l-.9.658" transform="translate(-124.046 -477.204)" fill="#2f2e41"/>
    <circle id="Ellipse_81" data-name="Ellipse 81" cx="4.44" cy="4.44" r="4.44" transform="translate(14.966 1.603)" fill="#ffb8b8"/>
    <path id="Path_211" data-name="Path 211" d="M154.267,216.319s-1.809,7.072-2.138,7.236,7.565.822,7.565.822-1.974-6.085,0-7.072Z" transform="translate(-138.479 -209.618)" fill="#ffb8b8"/>
    <path id="Path_212" data-name="Path 212" d="M138.157,235.172h0l-5.423,3.75.987,29.438s7.236-.822,8.881-.658,6.907-1.48,6.907-1.48L147.2,238.559a2.272,2.272,0,0,0-2.1-2.078l-.988-.07s-.987,2.443-3.955,1.183A3.464,3.464,0,0,1,138.157,235.172Z" transform="translate(-123.524 -224.162)" fill="#d0cde1"/>
    <path id="Path_213" data-name="Path 213" d="M125.469,234l-6.705,3.2-1.316,18.913s-2.631,11.348-.493,14.637a8.328,8.328,0,0,0,5.756,3.618s4.769-18.913,3.454-25.327S125.469,234,125.469,234Z" transform="translate(-110.705 -223.258)" fill="#575a89"/>
    <path id="Path_214" data-name="Path 214" d="M101.292,358.8v2.467s-.987,5.427,2.138,5.263,1.645-5.921,1.645-5.921l-.987-1.809Z" transform="translate(-99.154 -319.535)" fill="#ffb8b8"/>
    <path id="Path_215" data-name="Path 215" d="M216.759,379.277l-.329,2.8s1.645,5.592-1.48,5.756-.857-5.722-.857-5.722l1.021-3.159Z" transform="translate(-185.676 -335.079)" fill="#ffb8b8"/>
    <path id="Path_216" data-name="Path 216" d="M179.284,238.085h0a19.368,19.368,0,0,1,8.1,4.21l.028.025-2.3,12.17-.329,4.44s6.085,21.709-.987,18.584c0,0-6.085-18.913-5.263-27.629S179.284,238.085,179.284,238.085Z" transform="translate(-158.795 -226.41)" fill="#575a89"/>
    <path id="Path_217" data-name="Path 217" d="M202.872,255.76a8.526,8.526,0,0,1,2.138.229s3.618,12.764,3.618,14.9.493,14.308.493,14.308l-4.341.438-3.514-16.909Z" transform="translate(-176.394 -240.014)" fill="#575a89"/>
    <path id="Path_218" data-name="Path 218" d="M101.646,247.981h-1.151s-3.289,1.316-3.454,2.8-4.6,16.446-4.6,16.446l1.151,7.565,4.276-.658.822-8.387,4.276-9.21Z" transform="translate(-92.436 -234.044)" fill="#575a89"/>
    <path id="Path_219" data-name="Path 219" d="M157.117,194.282l.17-1.187c.04-.277.2-.64.471-.565.229.064.728.26.811.2.313-.221.786.166,1.115-.031.138-.082.228-.259.388-.271a.442.442,0,0,1,.285.129,1.937,1.937,0,0,0,.737.4.793.793,0,0,0,.776-.211.412.412,0,0,1,.137-.131.308.308,0,0,1,.2.009l.84.229a3.228,3.228,0,0,0-.432-2.658,5.345,5.345,0,0,0-1.224-1.2q-.78-.594-1.611-1.117a5.232,5.232,0,0,0-1.957-.851,2.09,2.09,0,0,0-1.947.646,1.254,1.254,0,0,1-.451-.609.462.462,0,0,0,.03.708l-.711-.454c-.2.21.19.59.02.824a.434.434,0,0,1-.191.125,3.258,3.258,0,0,0-1.042.656,3.887,3.887,0,0,0-.821,1.511,4.77,4.77,0,0,0-.13,3.745c.068.129.968,2.257,1.088,2.34.405.28.142-.4.432,0,.228.312.185-.883.524-.621a.844.844,0,0,0,.919.041c.14-.1.1-.638.019-1.134a.585.585,0,0,1,.712-.658A2.546,2.546,0,0,0,157.117,194.282Z" transform="translate(-138.573 -187)" fill="#2f2e41"/>
    <path id="Path_220" data-name="Path 220" d="M117.655,134.02l1.809,14.966h-1.151Z" transform="translate(-90.766 -103.39)" opacity="0.2"/>
    <path id="Path_221" data-name="Path 221" d="M31.094,108.834l-.915,5.756,1.737-5.756h-.822Z" transform="translate(-23.282 -83.96)" opacity="0.2"/>
  </g>
</svg>
