<svg xmlns="http://www.w3.org/2000/svg" width="194.635" height="137.154" viewBox="0 0 194.635 137.154">
  <g id="work_and_kearn" data-name="work and kearn" transform="translate(0 0.003)">
    <path id="Path_105" data-name="Path 105" d="M269.446,174.232H257.034a4.5,4.5,0,0,0-4.5,4.5v13.457c-.159-.009-.317-.024-.474-.043a15.87,15.87,0,1,1,17.316-18.389C269.4,173.914,269.424,174.073,269.446,174.232Z" transform="translate(-226.316 -160.495)" fill="#f2f2f2"/>
    <path id="Path_106" data-name="Path 106" d="M461.756,216.495H302.812a4.98,4.98,0,0,0-4.974,4.974v83.854a4.98,4.98,0,0,0,4.974,4.974H461.756a4.98,4.98,0,0,0,4.974-4.974V221.469a4.98,4.98,0,0,0-4.974-4.974Zm4.5,88.828a4.5,4.5,0,0,1-4.5,4.5H302.812a4.5,4.5,0,0,1-4.5-4.5V221.469a4.5,4.5,0,0,1,4.5-4.5H461.756a4.5,4.5,0,0,1,4.5,4.5Z" transform="translate(-272.095 -203.232)" fill="#3f3d56"/>
    <path id="Path_107" data-name="Path 107" d="M494.385,272.339H351.075a.237.237,0,1,1,0-.474h143.31a.237.237,0,1,1,0,.474Z" transform="translate(-312.541 -245.486)" fill="#3f3d56"/>
    <path id="Path_108" data-name="Path 108" d="M522.075,316.9a.237.237,0,0,1-.237-.237V238.732a.237.237,0,1,1,.474,0v77.932a.237.237,0,0,1-.237.237Z" transform="translate(-443.035 -220.021)" fill="#3f3d56"/>
    <path id="Path_109" data-name="Path 109" d="M673.075,316.9a.237.237,0,0,1-.237-.237V238.732a.237.237,0,1,1,.474,0v77.932A.237.237,0,0,1,673.075,316.9Z" transform="translate(-558.267 -220.021)" fill="#3f3d56"/>
    <path id="Path_110" data-name="Path 110" d="M824.075,316.9a.237.237,0,0,1-.237-.237V238.732a.237.237,0,0,1,.474,0v77.932A.237.237,0,0,1,824.075,316.9Z" transform="translate(-673.498 -220.021)" fill="#3f3d56"/>
    <path id="Path_111" data-name="Path 111" d="M394.435,337.309H385.78a1.067,1.067,0,0,1-1.066-1.066V326.029a1.067,1.067,0,0,1,1.066-1.066h8.655a1.067,1.067,0,0,1,1.066,1.066v10.214A1.067,1.067,0,0,1,394.435,337.309Z" transform="translate(-338.392 -286.007)" fill="#6c63ff"/>
    <path id="Path_112" data-name="Path 112" d="M446.435,460.309H437.78a1.067,1.067,0,0,1-1.066-1.066V449.029a1.067,1.067,0,0,1,1.066-1.066h8.655a1.067,1.067,0,0,1,1.066,1.066v10.214A1.067,1.067,0,0,1,446.435,460.309Z" transform="translate(-378.075 -379.871)" fill="#6c63ff"/>
    <path id="Path_113" data-name="Path 113" d="M564.435,363.309H555.78a1.067,1.067,0,0,1-1.066-1.066V352.029a1.067,1.067,0,0,1,1.066-1.066h8.655a1.067,1.067,0,0,1,1.066,1.066v10.214a1.067,1.067,0,0,1-1.066,1.066Z" transform="translate(-468.123 -305.848)" fill="#6c63ff"/>
    <path id="Path_114" data-name="Path 114" d="M717.435,316.309H708.78a1.067,1.067,0,0,1-1.066-1.066V305.029a1.067,1.067,0,0,1,1.066-1.066h8.655a1.067,1.067,0,0,1,1.066,1.066v10.214A1.067,1.067,0,0,1,717.435,316.309Z" transform="translate(-584.881 -269.981)" fill="#6c63ff"/>
    <path id="Path_115" data-name="Path 115" d="M858.435,316.309H849.78a1.067,1.067,0,0,1-1.066-1.066V305.029a1.067,1.067,0,0,1,1.066-1.066h8.655a1.067,1.067,0,0,1,1.066,1.066v10.214A1.067,1.067,0,0,1,858.435,316.309Z" transform="translate(-692.482 -269.981)" fill="#6c63ff"/>
    <path id="Path_116" data-name="Path 116" d="M923.435,328.309H914.78a1.067,1.067,0,0,1-1.066-1.066V317.029a1.067,1.067,0,0,1,1.066-1.066h8.655a1.067,1.067,0,0,1,1.066,1.066v10.214A1.067,1.067,0,0,1,923.435,328.309Z" transform="translate(-742.085 -279.139)" fill="#e6e6e6"/>
    <path id="Path_117" data-name="Path 117" d="M894.435,405.309H885.78a1.067,1.067,0,0,1-1.066-1.066V394.029a1.067,1.067,0,0,1,1.066-1.066h8.655a1.067,1.067,0,0,1,1.066,1.066v10.214A1.067,1.067,0,0,1,894.435,405.309Z" transform="translate(-719.954 -337.899)" fill="#e6e6e6"/>
    <path id="Path_118" data-name="Path 118" d="M770.435,389.309H761.78a1.067,1.067,0,0,1-1.066-1.066V378.029a1.067,1.067,0,0,1,1.066-1.066h8.655a1.067,1.067,0,0,1,1.066,1.066v10.214A1.067,1.067,0,0,1,770.435,389.309Z" transform="translate(-625.327 -325.689)" fill="#ff6584"/>
    <path id="Path_119" data-name="Path 119" d="M699.435,405.309H690.78a1.067,1.067,0,0,1-1.066-1.066V394.029a1.067,1.067,0,0,1,1.066-1.066h8.655a1.067,1.067,0,0,1,1.066,1.066v10.214A1.067,1.067,0,0,1,699.435,405.309Z" transform="translate(-571.145 -337.899)" fill="#e6e6e6"/>
    <path id="Path_120" data-name="Path 120" d="M546.435,473.309H537.78a1.067,1.067,0,0,1-1.066-1.066V462.029a1.067,1.067,0,0,1,1.066-1.066h8.655a1.067,1.067,0,0,1,1.066,1.066v10.214A1.067,1.067,0,0,1,546.435,473.309Z" transform="translate(-454.387 -389.792)" fill="#e6e6e6"/>
    <path id="Path_121" data-name="Path 121" d="M361.435,416.309H352.78a1.067,1.067,0,0,1-1.066-1.066V405.029a1.067,1.067,0,0,1,1.066-1.066h8.655a1.067,1.067,0,0,1,1.066,1.066v10.214A1.067,1.067,0,0,1,361.435,416.309Z" transform="translate(-313.209 -346.293)" fill="#ff6584"/>
    <path id="Path_122" data-name="Path 122" d="M464.435,337.309H455.78a1.067,1.067,0,0,1-1.066-1.066V326.029a1.067,1.067,0,0,1,1.066-1.066h8.655a1.067,1.067,0,0,1,1.066,1.066v10.214A1.067,1.067,0,0,1,464.435,337.309Z" transform="translate(-391.811 -286.007)" fill="#e6e6e6"/>
    <path id="Path_123" data-name="Path 123" d="M419.287,251.39h-13.5a.948.948,0,0,1,0-1.9h13.5a.948.948,0,0,1,0,1.9Z" transform="translate(-353.749 -228.415)" fill="#ccc"/>
    <path id="Path_124" data-name="Path 124" d="M580.287,251.39h-13.5a.948.948,0,0,1,0-1.9h13.5a.948.948,0,1,1,0,1.9Z" transform="translate(-476.612 -228.415)" fill="#ccc"/>
    <path id="Path_125" data-name="Path 125" d="M731.287,251.39h-13.5a.948.948,0,0,1,0-1.9h13.5a.948.948,0,1,1,0,1.9Z" transform="translate(-591.844 -228.415)" fill="#ccc"/>
    <path id="Path_126" data-name="Path 126" d="M872.287,251.39h-13.5a.948.948,0,0,1,0-1.9h13.5a.948.948,0,0,1,0,1.9Z" transform="translate(-699.445 -228.415)" fill="#ccc"/>
    <path id="Path_127" data-name="Path 127" d="M311.971,519.839a2.382,2.382,0,0,1-2.061-3.016l-6.072-5.652,3.21-.814,5.971,4.843a2.395,2.395,0,0,1-1.048,4.639Z" transform="translate(-276.674 -427.485)" fill="#ffb8b8"/>
    <path id="Path_128" data-name="Path 128" d="M184.4,530.166h2.9l1.381-11.2H184.4Z" transform="translate(-140.721 -396.037)" fill="#ffb8b8"/>
    <path id="Path_129" data-name="Path 129" d="M0,0H9.127V3.526h-5.6A3.526,3.526,0,0,1,0,0H0Z" transform="translate(52.185 136.826) rotate(179.997)" fill="#2f2e41"/>
    <path id="Path_130" data-name="Path 130" d="M100.345,522.529l2.807.747,4.217-10.469-4.142-1.1Z" transform="translate(-76.575 -390.497)" fill="#ffb8b8"/>
    <path id="Path_131" data-name="Path 131" d="M0,0H9.127V3.526h-5.6A3.526,3.526,0,0,1,0,0H0Z" transform="matrix(-0.966, -0.257, 0.257, -0.966, 31.295, 136.827)" fill="#2f2e41"/>
    <path id="Path_132" data-name="Path 132" d="M311.449,551.563h-4.431a1.12,1.12,0,0,1-1.12-1.017l-2.69-27.935a.888.888,0,0,0-1.734-.169l-7.81,26.1a1.123,1.123,0,0,1-1.35.769l-4.122-1.031a1.125,1.125,0,0,1-.817-1.371c.067-.263,6.73-26.3,6.788-26.568,1.51-11.126,3.316-14.107,4.286-15.708.08-.133.154-.254.221-.37.083-.144.6-1.574.92-2.5a1.135,1.135,0,0,1,.577-.705c4.077-2.085,8.847-.642,10.212-.15a1.109,1.109,0,0,1,.554.43c4.094,6.176,2.085,42.043,1.641,49.171A1.125,1.125,0,0,1,311.449,551.563Z" transform="translate(-264.083 -419.554)" fill="#2f2e41"/>
    <circle id="Ellipse_36" data-name="Ellipse 36" cx="5.818" cy="5.818" r="5.818" transform="translate(30.113 49.615)" fill="#ffb8b8"/>
    <path id="Path_133" data-name="Path 133" d="M315.827,446.763l-.042-.04c-.078-.076-7.83-7.67-6.827-14.692.429-3,2.859-4.923,7.028-5.55a6.428,6.428,0,0,1,7.106,4.529l4.122,14.09Z" transform="translate(-280.513 -363.423)" fill="#ccc"/>
    <path id="Path_134" data-name="Path 134" d="M300.761,466.94l-5.524-5.489a3.112,3.112,0,0,1-.824-2.935l2.674-10.877a2.453,2.453,0,1,1,4.735,1.278l-2.815,9.569,4.552,4.888Z" transform="translate(-269.415 -378.198)" fill="#ccc"/>
    <path id="Path_135" data-name="Path 135" d="M411.452,445.061a2.382,2.382,0,0,1-3.526.954l-7.374,3.822.326-3.247,6.537-4.046a2.395,2.395,0,0,1,4.036,2.516Z" transform="translate(-350.479 -375.051)" fill="#ffb8b8"/>
    <path id="Path_136" data-name="Path 136" d="M362.856,439.837l-7.188,3.106a3.034,3.034,0,0,1-2.956-.317l-9.141-6.549a2.453,2.453,0,1,1,2.945-3.921l7.838,6.169,6.23-2.41Z" transform="translate(-306.213 -367.411)" fill="#ccc"/>
    <path id="Path_137" data-name="Path 137" d="M299.825,373.159c.718-.9,2.059-.948,3.045-1.541a3.558,3.558,0,0,0,1.409-3.962,4.971,4.971,0,0,0-3.051-3.117,8.418,8.418,0,0,0-4.457-.286,9.05,9.05,0,0,0-5.734,3.214,5.666,5.666,0,0,0-.469,6.3c.561.865,1.428,1.579,1.652,2.586.294,1.322-.633,2.6-1.626,3.517a36.931,36.931,0,0,0-3.421,3.108,4.741,4.741,0,0,0-1.2,4.271,4.318,4.318,0,0,0,2.691,2.6,11.409,11.409,0,0,0,3.819.547,6.452,6.452,0,0,0,3.645-.683,4.238,4.238,0,0,0,1.78-3.441,8.149,8.149,0,0,0-1.005-3.86,14.837,14.837,0,0,1-1.013-2.175,3.048,3.048,0,0,1,.1-2.336,2.913,2.913,0,0,1,2.038-1.349c.043-.008.088-.016.136-.023a1.752,1.752,0,0,0,1.5-2.044A1.711,1.711,0,0,1,299.825,373.159Z" transform="translate(-262.93 -315.862)" fill="#2f2e41"/>
    <path id="Path_138" data-name="Path 138" d="M469.423,531.213h-2.9l-1.381-11.2h4.286Z" transform="translate(-354.957 -396.836)" fill="#a0616a"/>
    <path id="Path_139" data-name="Path 139" d="M450.851,563.8h5.6v3.526h-9.127A3.526,3.526,0,0,1,450.851,563.8Z" transform="translate(-341.364 -430.249)" fill="#2f2e41"/>
    <path id="Path_140" data-name="Path 140" d="M544.631,520.588l-2.641,1.206-5.911-9.615,3.9-1.781Z" transform="translate(-409.095 -389.5)" fill="#a0616a"/>
    <path id="Path_141" data-name="Path 141" d="M3.526,0h5.6V3.526H0A3.526,3.526,0,0,1,3.526,0Z" transform="translate(127.455 133.868) rotate(-24.548)" fill="#2f2e41"/>
    <path id="Path_142" data-name="Path 142" d="M713.248,531.647a2.382,2.382,0,0,0,.19-3.648l3.414-7.746-4.337.735-2.577,7.243a2.395,2.395,0,0,0,3.31,3.416Z" transform="translate(-586.169 -435.038)" fill="#a0616a"/>
    <path id="Path_143" data-name="Path 143" d="M654.363,578.3h-2.774a1.07,1.07,0,0,1-1.063-.989l-1.513-40.4a1.066,1.066,0,0,1,1.167-1.138l16.045,1.7a1.066,1.066,0,0,1,.962,1.041l.336,17.821a.826.826,0,0,0,.055.283l6.582,17.068a1.066,1.066,0,0,1-.626,1.384l-2.811,1.036a1.066,1.066,0,0,1-1.316-.513l-8.085-15.721a1.059,1.059,0,0,1-.1-.271l-1.381-6.655a.829.829,0,0,0-1.635.074l-2.786,24.333A1.066,1.066,0,0,1,654.363,578.3Z" transform="translate(-540.083 -446.877)" fill="#2f2e41"/>
    <circle id="Ellipse_37" data-name="Ellipse 37" cx="5.818" cy="5.818" r="5.818" transform="translate(109.844 46.809)" fill="#a0616a"/>
    <path id="Path_144" data-name="Path 144" d="M658.333,450.662a20.766,20.766,0,0,1-11.1-3.363l-.057-.039.006-.069,2.225-25.918a3.653,3.653,0,0,1,3.458-3.331c2.884-.133,6.758.035,8.832,1.579a10.113,10.113,0,0,1,4.144,9.644c-1.037,7.869.138,18.483.275,19.668l.01.085-.078.036A18.3,18.3,0,0,1,658.333,450.662Z" transform="translate(-538.681 -356.934)" fill="#6c63ff"/>
    <path id="Path_145" data-name="Path 145" d="M713.739,468.157a1.186,1.186,0,0,1-.872-.384l-1.273-1.388a1.191,1.191,0,0,1-.263-1.136l2.9-9.822-4.415-9.272a2.087,2.087,0,0,1,3.721-1.886l5.992,9.722a2.831,2.831,0,0,1,.171,2.653L714.82,467.46a1.181,1.181,0,0,1-.892.682A1.2,1.2,0,0,1,713.739,468.157Z" transform="translate(-586.333 -376.214)" fill="#6c63ff"/>
    <path id="Path_146" data-name="Path 146" d="M550.748,455.511a2.382,2.382,0,0,0,3.553-.847l8.394,1.089-1.929-3.953-7.676-.428a2.395,2.395,0,0,0-2.342,4.14Z" transform="translate(-464.35 -382.33)" fill="#a0616a"/>
    <path id="Path_147" data-name="Path 147" d="M584.4,431.6a3.18,3.18,0,0,1-.437-.03l-13.206-1.832a1.318,1.318,0,0,1-1.082-.933h0a1.318,1.318,0,0,1,.136-1.05l1.093-1.812a1.323,1.323,0,0,1,1.127-.636h0l11.511.013,8.6-7.7a2.33,2.33,0,0,1,3.193,3.391l-8.578,9.541a3.166,3.166,0,0,1-2.355,1.05Z" transform="translate(-479.501 -356.26)" fill="#6c63ff"/>
    <path id="Path_148" data-name="Path 148" d="M653.569,361.624c.532-1.23.982-2.869-.038-3.739a3.779,3.779,0,0,0-2.218-.568,6.825,6.825,0,0,1-5.5-3.094c-1.067-1.913-.471-4.758,1.542-5.621,1.357-.582,2.913-.185,4.333.217l4.265,1.209a7.523,7.523,0,0,1,3.51,1.706,4.825,4.825,0,0,1,.191,5.831,10.464,10.464,0,0,1-4.889,4.25Z" transform="translate(-537.246 -303.822)" fill="#2f2e41"/>
    <path id="Path_149" data-name="Path 149" d="M364.328,737.688H189.444a.282.282,0,1,1,0-.564H364.328a.282.282,0,1,1,0,.564Z" transform="translate(-189.162 -600.536)" fill="#3f3d56"/>
  </g>
</svg>
